<svg width="165" height="101" fill="none" xmlns="http://www.w3.org/2000/svg"><path fill-rule="evenodd" clip-rule="evenodd" d="M103.313 7.02a3.224 3.224 0 013.263-1.477l16.58 2.767a3.225 3.225 0 012.651 3.708l-2.76 16.587a3.229 3.229 0 01-2.454 2.609 3.227 3.227 0 01-3.35-1.268l-4.476-6.255-23.049 14.73a4.836 4.836 0 01-6.28-.93L70.583 22.466 46.55 34.815a4.837 4.837 0 11-4.424-8.603l27.44-14.104a4.837 4.837 0 015.888 1.161l12.602 14.736 19.089-12.201-3.722-5.205a3.225 3.225 0 01-.109-3.58zM61.098 38.684L42.383 49.39a4.837 4.837 0 00-2.438 4.192v37.081a4.838 4.838 0 004.837 4.837h16.316V38.684zM69.159 95.5h23.655V51.57L82.18 56.883 71.552 38.285a4.817 4.817 0 00-2.387-2.09L69.16 95.5zm49.786 0h-18.07V47.539l15.91-7.958a4.835 4.835 0 016.997 4.327v46.755a4.837 4.837 0 01-4.837 4.837z" fill="#21A038"/></svg>