<svg width="32" height="32" fill="none" xmlns="http://www.w3.org/2000/svg"><g clip-path="url(#clip0_1_72)"><path d="M17.913 19.405l2.611-3.554c.62-.799.993-1.816.993-2.92v-.016a5.444 5.444 0 00-1.726-3.949l-.003-.003a5.39 5.39 0 00-9.05 3.628l-.001.016a5.38 5.38 0 001.051 3.523l-.01-.015 2.263 3.296c-3.804.205-7.483 1.04-7.483 2.508 0 1.662 4.865 2.56 9.442 2.56s9.442-.898 9.442-2.56c0-1.5-3.711-2.33-7.529-2.514zm-6.615-6.769a4.832 4.832 0 014.479-4.54l.015-.002c.111-.007.222-.01.333-.01h.015c1.264 0 2.414.49 3.268 1.292l-.003-.002a4.884 4.884 0 011.55 3.542v.002a4.264 4.264 0 01-.874 2.589l.008-.01-4.165 5.666-3.689-5.374a4.75 4.75 0 01-.937-3.165l-.001.014.001-.002zM16 23.919c-5.502 0-8.881-1.165-8.881-2 0-.306.53-.788 2.016-1.217 1.568-.422 3.38-.692 5.245-.745l.034-.002.969 1.412h-2.561a.281.281 0 000 .563h6.108a.281.281 0 000-.563h-2.458l1.04-1.415c4.552.166 7.368 1.148 7.368 1.968 0 .834-3.378 1.998-8.88 1.998z" fill="#21A038"/><path d="M17.283 13.038a1.16 1.16 0 11-2.32 0 1.16 1.16 0 012.32 0z" fill="#21A038"/><circle cx="16" cy="16" r="15.75" stroke="#21A038" stroke-width=".5"/></g><defs><clipPath id="clip0_1_72"><path fill="#fff" d="M0 0h32v32H0z"/></clipPath></defs></svg>