<svg width="32" height="32" fill="none" xmlns="http://www.w3.org/2000/svg"><g clip-path="url(#clip0_1_52)"><circle cx="16" cy="16" r="15.75" stroke="#21A038" stroke-width=".5"/><path d="M14.57 15.56a.474.474 0 11-.948 0 .474.474 0 01.947 0zm2.077 0a.474.474 0 11-.947 0 .474.474 0 01.947 0zm2.078 0a.474.474 0 11-.947 0 .474.474 0 01.947 0zm-4.63 1.435a.474.474 0 100 .948.474.474 0 000-.948zm2.078 0a.474.474 0 100 .948.474.474 0 000-.948zm2.078 0a.474.474 0 100 .948.474.474 0 000-.948zm-3.681 2.272a.474.474 0 11-.948 0 .474.474 0 01.947 0zm2.077 0a.474.474 0 11-.947 0 .474.474 0 01.947 0zm2.078 0a.474.474 0 11-.947 0 .474.474 0 01.947 0z" fill="#21A038"/><path d="M24.331 12.6l-.005-.014C23.633 10.49 21.693 9.003 19.405 9h-6.74a5.176 5.176 0 00-4.906 3.55l-.01.037-.005.013a5.03 5.03 0 00-.244 1.566c0 .372.302.674.674.674h2.999l-1.38 2.297a5.598 5.598 0 00-.808 2.912v.642a1.619 1.619 0 001.617 1.617h11.285a1.619 1.619 0 001.617-1.617v-.01a6.838 6.838 0 00-1.254-3.958l.014.022-1.328-1.905h2.973a.668.668 0 00.667-.667c0-.562-.09-1.102-.256-1.608l.01.036.001-.001zM12.665 9.561h6.74a4.616 4.616 0 014.251 2.828l.011.03h-3.903a2.403 2.403 0 00-1.816-.826h-3.905a2.41 2.41 0 00-1.808.824l-.002.003H8.407c.707-1.69 2.346-2.856 4.257-2.858l.001-.001zm-4.604 4.604c.002-.422.06-.829.168-1.216l-.008.032h3.642a2.345 2.345 0 00-.224.819l-.001.009a1.265 1.265 0 01-.143.475l.003-.007H8.173a.113.113 0 01-.113-.113l.001.001zm14.882 6.525a1.057 1.057 0 01-1.055 1.055H10.603a1.057 1.057 0 01-1.055-1.055v-.642c0-.969.271-1.875.74-2.646l-.013.023 1.587-2.643a.277.277 0 00.116-.2c.117-.21.196-.458.22-.72l.001-.007a1.863 1.863 0 011.845-1.7h3.903c.989 0 1.799.777 1.849 1.754v.004c.01.199.076.381.183.532l-.002-.003 1.829 2.623a6.255 6.255 0 011.139 3.616v.01l-.002-.001zm.967-6.413h-3.365l-.109-.157a.448.448 0 01-.081-.235v-.001a2.409 2.409 0 00-.231-.918l.006.015h3.723c.101.357.16.767.162 1.19v.001a.105.105 0 01-.105.105z" fill="#21A038"/></g><defs><clipPath id="clip0_1_52"><path fill="#fff" d="M0 0h32v32H0z"/></clipPath></defs></svg>