<svg width="32" height="32" fill="none" xmlns="http://www.w3.org/2000/svg"><g clip-path="url(#clip0_1_67)"><path d="M23.967 11.503l-.003-.006c-.003-.004-.009-.006-.012-.011a1.9 1.9 0 00-1.418-.637H11.997a1.89 1.89 0 00-1.416.635l-.002.002c-.004.004-.009.006-.012.01l-.003.008a1.885 1.885 0 00-.473 1.253v2.964H7.842a.281.281 0 000 .562h2.249v1.526h-.985a.281.281 0 000 .562h.985v.876a1.909 1.909 0 001.907 1.907h10.537a1.909 1.909 0 001.907-1.907v-6.49c0-.48-.179-.92-.475-1.254zm-1.433-.093c.288 0 .555.092.773.247l-.004-.003-5.365 4.164a1.093 1.093 0 01-1.346-.002l.002.002-5.365-4.164c.214-.152.481-.244.768-.244h10.537zm1.345 7.834a1.347 1.347 0 01-1.345 1.345H11.997a1.347 1.347 0 01-1.345-1.345v-.876h2.756a.281.281 0 000-.562h-2.756v-5.051c.001-.254.074-.491.198-.692l-.003.006 5.403 4.193c.278.217.632.348 1.016.348a1.65 1.65 0 001.02-.351l-.004.003 5.403-4.193c.121.196.193.432.195.686l-.001 6.489z" fill="#21A038"/><circle cx="16" cy="16" r="15.75" stroke="#21A038" stroke-width=".5"/></g><defs><clipPath id="clip0_1_67"><path fill="#fff" d="M0 0h32v32H0z"/></clipPath></defs></svg>