<svg width="427" height="386" fill="none" xmlns="http://www.w3.org/2000/svg"><g clip-path="url(#clip0_3040_437)"><g opacity=".3" stroke="#000" stroke-width=".853" stroke-miterlimit="10" stroke-linecap="round" stroke-linejoin="round"><path d="M342.617 176.642h56.779v42.304h-56.779v-42.304zM279.96 29.204h56.78v41.71h-56.492v5.45h56.492v44.69h-56.492v5.448h56.492v44.691h-56.492v5.449h56.492v42.304h-56.78V29.204zm62.657 47.16h56.779v44.69h-56.779v-44.69zm0 50.138h56.779v44.69h-56.779v-44.69zm56.779-55.587h-56.779V29.204h56.779v41.71zM275.27 226.395h128.815V21.754H275.27v204.641zm53.332-184.719l-28.646 23.707m85.445 22.719l-28.646 23.707m-36.056 76.556l-28.646 23.707M313.579 48.59l-13.13 10.866m82.77 23.214l-13.13 10.866m-51.078 102.237l-13.129 10.866m9.178-63.219l-13.129 10.866m80.301 35.066l-13.131 10.866"/><path d="M267.852 226.26h144.22v17.916h-144.22V226.26z"/></g><path d="M340.312 160.036c-4.877 12.193-21.171 17.552-36.394 11.97-15.224-5.584-23.612-19.996-18.736-32.19 4.876-12.195 21.17-17.553 36.393-11.97 15.224 5.583 23.613 19.995 18.737 32.19z" fill="#21A038"/><path d="M285.181 139.816c4.876-12.194 21.171-17.553 36.394-11.97 15.224 5.584 23.613 19.995 18.737 32.19-4.876 12.194-21.17 17.553-36.394 11.97-15.224-5.584-23.612-19.996-18.737-32.19z" stroke="#111311" stroke-width=".831" stroke-miterlimit="10" stroke-linecap="round" stroke-linejoin="round"/><path d="M294.476 158.221s-6.118 1.027-8.319-2.607c-2.201-3.635 3.185-12.942 8.226-16.914 5.039-3.972 17.746-4.56 24.063-3.161 6.317 1.399 13.228 7.246 13.55 12.653.322 5.408-2.544 10.325-2.913 11.982-.37 1.656-4.113 1.246-4.529.353-.417-.895-6.706-14.026-8.231-14.758-1.525-.733-2.753.263-4.628 1.048-1.875.784-15.934 5.182-15.934 5.182l-1.285 6.222z" fill="#111311" stroke="#111311" stroke-width=".831" stroke-miterlimit="10" stroke-linecap="round" stroke-linejoin="round"/><path d="M297.146 295.648l-.134-17.725-8.746 20.54v.002c-1.758 2.391-3.878 5.496-4.993 7.968-2.113 4.689 3.078 20.812 3.783 19.25.703-1.563 6.307-22.014 6.307-22.014s1-3.507 1.161-6.329l2.622-1.692z" fill="#9D9D9D" stroke="#111311" stroke-width=".831" stroke-miterlimit="10" stroke-linecap="round" stroke-linejoin="round"/><path d="M293.764 307.612s-5.711 1.33-7.413 13.324c-.465 3.271-.854 38.114-1.67 43.861l-3.383 23.837 30.044 3.274 6.921-22.229-.362 22.456 30.133 3.284s7.97-34.585 8.817-38.894c.847-4.309 4.267-13.472 5.416-26.55 1.151-13.079-.913-18.438-.913-18.438l-66.266-8.445-1.324 4.52z" fill="#111311" stroke="#111311" stroke-width=".831" stroke-miterlimit="10" stroke-linecap="round" stroke-linejoin="round"/><path d="M314.545 189.181s-15.804 10.931-19.331 14.014c-3.657 3.197-5.1 22.866-2.965 36.761 2.133 13.896 3.475 35.165 3.083 39.392-.391 4.226-3.292 29.437-3.292 29.437s23.607 13.046 39.293 12.204c15.689-.844 27.532-6.378 27.532-6.378s3.666-43.359 5.002-52.82c1.336-9.459 3.742-41.003 3.269-52.155-.473-11.152-6.613-18.442-11.769-19.648-5.157-1.205-24.646-4.27-24.646-4.27l-16.176 3.463z" fill="#9D9D9D" stroke="#111311" stroke-width=".831" stroke-miterlimit="10" stroke-linecap="round" stroke-linejoin="round"/><path d="M306.174 185.857s3.722 19.228 4.752 19.527c1.031.3 4.264-2.328 4.264-2.328l13.835-16.932-2.114-17.254s-3.815 8.591-9.55 13.74c-5.733 5.148-11.187 3.247-11.187 3.247z" fill="#9D9D9D" stroke="#111311" stroke-width=".831" stroke-miterlimit="10" stroke-linecap="round" stroke-linejoin="round"/><path d="M318.899 183.41L308.6 195.981l-2.574-10.275 12.873-2.296z" fill="#111311" stroke="#111311" stroke-width=".831" stroke-miterlimit="10" stroke-linecap="round" stroke-linejoin="round"/><path d="M316.986 140.491s-8.117 5.245-14.235 6.806c-6.121 1.562-9.142 2.068-9.142 2.068s.116 12.413.158 15.9c.042 3.488.412 9.38 2.438 12.108 2.026 2.729 6.998 9.262 9.424 11.06 2.426 1.797 7.089 1.052 8.507.51 1.417-.542 10.786-11.781 11.415-13.384.63-1.603.803-6.6.803-6.6s3.704-1.547 4.504-3.41c.801-1.862.625-9.127-.295-10.202-.92-1.076-2.792-.166-3.212.903-.42 1.069-1.444 2.629-1.444 2.629s.276-2.895-.527-4.794c-.803-1.899-.706-2.585-2.922-4.917-2.217-2.331-5.472-8.677-5.472-8.677z" fill="#9D9D9D" stroke="#111311" stroke-width=".831" stroke-miterlimit="10" stroke-linecap="round" stroke-linejoin="round"/><path d="M304.273 166.398l-.13 3.805s4.431.344 6.751-1.665m-9.643 5.246s3.061 1.477 8.237.481c5.176-.995 6.895-4.508 6.895-4.508m-14.035-12.782s-5.575-2.631-7.776.675m14.003-2.105s4.383-3.492 8.271-1.405" stroke="#111311" stroke-width=".831" stroke-miterlimit="10" stroke-linecap="round" stroke-linejoin="round"/><path d="M301.086 162.1c.261 1.104.032 2.1-.51 2.221s-1.195-.677-1.455-1.782c-.26-1.106-.033-2.1.51-2.222.543-.12 1.194.677 1.455 1.783zm13.061-2.299c.261 1.105.032 2.099-.511 2.221-.542.12-1.193-.677-1.455-1.782-.26-1.106-.032-2.101.511-2.221.543-.121 1.193.676 1.455 1.782z" fill="#111311"/><path d="M340.257 212.263l5.384 43.871s-.879 2.022-.657 3.32c.222 1.298.276 2.363.276 2.363s-5.453 16.354-9.621 26.277c-4.168 9.924-17.102 31.161-17.052 33.712.051 2.551-4.901 21.081-3.832 22.049 1.069.969 3.657 2.533 4.446 2.622.788.089 4.282.906 5.465 1.039 1.183.133 5.551.413 6.57-1.17 1.018-1.581.965-2.648-.276-2.363-1.241.284-3.242.271-3.242.271l-.559-1.76s1.991-7.198 1.752-12.74c-.24-5.541-.376-7.465-.376-7.465s30.483-39.623 32.56-47.449c2.076-7.825 4.861-16.42 5.406-20.388.546-3.968 1.511-40.127.873-44.228-.637-4.101-.683-8.136-3.379-11.833-2.697-3.696-4.867-3.941-6.445-4.118" fill="#9D9D9D"/><path d="M340.257 212.263l5.384 43.871s-.879 2.022-.657 3.32c.222 1.298.276 2.363.276 2.363s-5.453 16.354-9.621 26.277c-4.168 9.924-17.102 31.161-17.052 33.712.051 2.551-4.901 21.081-3.832 22.049 1.069.969 3.657 2.533 4.446 2.622.788.089 4.282.906 5.465 1.039 1.183.133 5.551.413 6.57-1.17 1.018-1.581.965-2.648-.276-2.363-1.241.284-3.242.271-3.242.271l-.559-1.76s1.991-7.198 1.752-12.74c-.24-5.541-.376-7.465-.376-7.465s30.483-39.623 32.56-47.449c2.076-7.825 4.861-16.42 5.406-20.388.546-3.968 1.511-40.127.873-44.228-.637-4.101-.683-8.136-3.379-11.833-2.697-3.696-4.867-3.941-6.445-4.118m-10.626 66.74s6.45-2.023 11.333 1.068m-6.822-5.144s7.297-1.051 10.947 4.888" stroke="#111311" stroke-width=".831" stroke-miterlimit="10" stroke-linecap="round" stroke-linejoin="round"/><path d="M339.015 280.343c-1 2.606-2.011 5.144-2.957 7.363-4.247 9.964-17.417 31.295-17.369 33.854.048 2.561-5.005 21.166-3.921 22.138 1.085.971 3.714 2.538 4.516 2.626.802.089 4.351.905 5.554 1.038 1.202.133 5.64.409 6.677-1.179 1.037-1.59.984-2.661-.278-2.373-1.26.286-3.295.275-3.295.275l-.566-1.765s2.032-7.229 1.795-12.791c-.236-5.561-.372-7.493-.372-7.493s14.906-19.124 24.76-33.477c-4.229-5.985-10.373-7.756-14.544-8.216z" fill="#9D9D9D" stroke="#111311" stroke-width=".831" stroke-miterlimit="10" stroke-linecap="round" stroke-linejoin="round"/><path d="M323.424 342.839s1.777 2.007 2.399 2.652c.622.645.777 1.239 2.081 1.546" fill="#9D9D9D"/><path d="M323.424 342.839s1.777 2.007 2.399 2.652c.622.645.777 1.239 2.081 1.546" stroke="#111311" stroke-width=".831" stroke-miterlimit="10" stroke-linecap="round" stroke-linejoin="round"/><path d="M319.184 343.368s2.785 2.697 4.643 3.386z" fill="#9D9D9D"/><path d="M319.184 343.368s2.785 2.697 4.643 3.386" stroke="#111311" stroke-width=".831" stroke-miterlimit="10" stroke-linecap="round" stroke-linejoin="round"/><path d="M315.83 342.467s1.184 2.083 2.685 2.99z" fill="#9D9D9D"/><path d="M315.83 342.467s1.184 2.083 2.685 2.99" stroke="#111311" stroke-width=".831" stroke-miterlimit="10" stroke-linecap="round" stroke-linejoin="round"/><path d="M292.922 302.4s-.06 5.701.103 6.644c.162.944-.504 2.567-.702 6.092-.198 3.526.162 7.267-1.922 6.42-2.084-.85-2.271-6.885-1.914-8.389.356-1.503-1.612-6.349-1.612-6.349" fill="#9D9D9D"/><path d="M292.922 302.4s-.06 5.701.103 6.644c.162.944-.504 2.567-.702 6.092-.198 3.526.162 7.267-1.922 6.42-2.084-.85-2.271-6.885-1.914-8.389.356-1.503-1.612-6.349-1.612-6.349" stroke="#111311" stroke-width=".831" stroke-miterlimit="10" stroke-linecap="round" stroke-linejoin="round"/><path d="M254.42 273.423c-1.637-4.572-10.482-66.107-10.482-66.107-4.094 8.439-11.252 51.309-11.252 51.309l-1.005 23.003-.835 4.25c4.578-2.625 15.619-7.621 21.509 1.01.159-.41.281-.757.358-1.032 1.585-5.669 3.344-7.86 1.707-12.433z" fill="#21A038"/><path d="M254.42 273.423c-1.637-4.572-10.482-66.107-10.482-66.107-4.094 8.439-11.252 51.309-11.252 51.309l-1.005 23.003-.835 4.25c4.578-2.625 15.619-7.621 21.509 1.01.159-.41.281-.757.358-1.032 1.585-5.669 3.344-7.86 1.707-12.433zm-5.206 5.224c1.124.308 2.2.735 3.183 1.314m-19.198-.924s5.897-1.644 11.927-1.093m6.508-1.459s-4.566-3.648-8.719-2.726" stroke="#111311" stroke-width=".891" stroke-miterlimit="10" stroke-linecap="round" stroke-linejoin="round"/><path d="M138.152 387.173l6.789-46.272 6.343-25.144 74.445 4.335 4.346 18.859-2.98 57.174-37.518-3.519-2.418-38.281-2.478 3.431-4.899 33.117-41.63-3.7z" fill="#111311" stroke="#111311" stroke-width=".891" stroke-miterlimit="10" stroke-linecap="round" stroke-linejoin="round"/><path d="M184.441 191.767s-33.087 5.779-35.161 6.595c-2.074.815-1.506 31.377.152 42.645 1.658 11.269 4.001 52.301 4.001 52.301l-4.101 29.113s31.29 3.75 44.049 3.333c12.76-.416 26.97-2.717 26.97-2.717s7.649-25.344 8.222-42.464c.573-17.121 10.249-58.842 10.66-61.632.412-2.79 3.675-12.99 3.675-12.99s-22.967-9.837-29.016-11.213c-6.048-1.377-20.44-3.134-29.451-2.971z" fill="#21A038" stroke="#111311" stroke-width=".891" stroke-miterlimit="10" stroke-linecap="round" stroke-linejoin="round"/><path d="M176 199.017s2.951 11.659 11.814 19.476m22.256-17.822s-2.232 4.161-5.566 8.589m-.857 2.289l-1.946 2.177m-21.82 107.394c7.667.388 21.764.696 31.177-1.515m-36.62 1.191s.869.074 2.368.167m29.914-5.379c-10.154.381-25.448.093-36.943-3.925m47.76 3.503s-2.582.251-6.707.422m7.352-14.387c-6.408 2.893-18.572 7.644-30.264 8.118m34.888-10.296s-.876.46-2.424 1.185" stroke="#111311" stroke-width=".891" stroke-miterlimit="10" stroke-linecap="round" stroke-linejoin="round"/><path d="M180.067 180.564l-.648 16.215s3.308 12.103 14.455 12.388c10.932.279 14.31-13.85 14.31-13.85l-.085-17.188s-10.542 7.33-15.792 6.115c-5.249-1.216-12.24-3.68-12.24-3.68z" fill="#9D9D9D" stroke="#111311" stroke-width=".891" stroke-miterlimit="10" stroke-linecap="round" stroke-linejoin="round"/><path d="M170.821 160.852s-1.643-2.777-3.418-.571c-1.776 2.205-.797 8.664 1.743 10.276 2.539 1.612 3.255 1.679 3.255 1.679s2.288 6.582 3.683 8.586c1.395 2.003 12.137 11.876 14.923 12.638 2.786.76 6.964.279 8.767-1.3 1.804-1.578 8.316-12.952 9.448-15.717 1.134-2.765 1.344-3.369 1.599-5.093.255-1.724.353-3.212.353-3.212s3.377-4.053 4.124-7.478c.748-3.425.296-6.09-1.418-6.75-1.713-.661-4.165 2.854-4.165 2.854l-3.632-19.566s-1.381-5.374-3.077-6.157c-1.696-.784-14.68-.38-20.386 1.455-5.706 1.837-11.312 3.807-12.052 6.359-.739 2.553.253 21.997.253 21.997z" fill="#9D9D9D" stroke="#111311" stroke-width=".891" stroke-miterlimit="10" stroke-linecap="round" stroke-linejoin="round"/><path d="M183.453 135.324s-10.531 1.152-11.344 2.827c-.812 1.673-2.038 4.865-1.292 7.463.745 2.599.331 15.59.331 15.59s1.076 4.186.045 3.506c-1.029-.68-1.249-5.563-1.535-6.173-.286-.61-3.755-10.271-4.73-13.864-.975-3.592 2.48-6.575 3.337-7.272.856-.698 1.77-1.779 1.77-1.779s-.106-5.651 2.678-7.918c2.785-2.267 21.189-4.431 22.76-4.867 1.572-.437 3.541-3.558 4.955-4.203 1.414-.645 5.031 1.638 6.738 6.661 1.705 5.022 1.321 6.348.435 7.236l-.884.89s2.544.627 3.119 4.377c.576 3.75 1.551 7.342 1.126 10.22-.426 2.877-1.526 8.384-1.611 8.959-.085.576-.653-.03-.926-2.001-.274-1.971-3.218-16.445-3.734-18.05a36.801 36.801 0 00-1.504-3.836c-.287-.61-15.608-1.463-19.734 2.234z" fill="#111311" stroke="#111311" stroke-width=".891" stroke-miterlimit="10" stroke-linecap="round" stroke-linejoin="round"/><path d="M191.235 193.4c2.802.763 7.003.28 8.817-1.305 1.814-1.586 8.362-13.009 9.502-15.786 1.139-2.778 1.35-3.385 1.607-5.117.256-1.731.356-3.227.356-3.227l-1.074-11.94c-.107.135-.195.248-.26.336-.163 3.641-.503 10.669-.739 11.662-.321 1.349-1.979 2.698-3.452 2.81-1.475.113-8.139-1.64-11.17-1.674-3.031-.033-4.154.989-6.614 2.014-2.459 1.023-7.57 3.552-8.823 3.811-1.253.259-3.402-.82-4.177-2.147-.776-1.326-3.421-12.06-3.421-12.06-.083.665-.902 1.874-.902 1.874l1.641 9.433s2.301 6.611 3.704 8.623c1.402 2.013 12.203 11.929 15.005 12.693z" fill="#111311"/><path d="M191.235 193.4c2.802.763 7.003.28 8.817-1.305 1.814-1.586 8.362-13.009 9.502-15.786 1.139-2.778 1.35-3.385 1.607-5.117.256-1.731.356-3.227.356-3.227l-1.074-11.94c-.107.135-.195.248-.26.336-.163 3.641-.503 10.669-.739 11.662-.321 1.349-1.979 2.698-3.452 2.81-1.475.113-8.139-1.64-11.17-1.674-3.031-.033-4.154.989-6.614 2.014-2.459 1.023-7.57 3.552-8.823 3.811-1.253.259-3.402-.82-4.177-2.147-.776-1.326-3.421-12.06-3.421-12.06-.083.665-.902 1.874-.902 1.874l1.641 9.433s2.301 6.611 3.704 8.623c1.402 2.013 12.203 11.929 15.005 12.693z" stroke="#111311" stroke-width=".891" stroke-miterlimit="10" stroke-linecap="round" stroke-linejoin="round"/><path d="M194.716 151.909s-2.297 2.102-2.029 2.869c.269.769 3.349 14.651 3.022 16.097-.326 1.445-2.404 1.969-3.941 1.314-1.538-.653-2.041-5.144-2.041-5.144" fill="#9D9D9D"/><path d="M194.716 151.909s-2.297 2.102-2.029 2.869c.269.769 3.349 14.651 3.022 16.097-.326 1.445-2.404 1.969-3.941 1.314-1.538-.653-2.041-5.144-2.041-5.144" stroke="#111311" stroke-width=".891" stroke-miterlimit="10" stroke-linecap="round" stroke-linejoin="round"/><path d="M196.855 150.916s4.703-2.494 8.306-.141m-19.981 1.654s-6.549-2.356-9.964 2.558" stroke="#111311" stroke-width="2.672" stroke-miterlimit="10" stroke-linecap="round" stroke-linejoin="round"/><path d="M183.824 158.527c.137 1.038-.269 1.955-.904 2.048-.636.092-1.262-.676-1.399-1.714-.137-1.038.269-1.955.904-2.047.636-.093 1.263.675 1.399 1.713z" fill="#111311"/><path d="M181.499 158.862c-.158-1.036.239-1.951.887-2.045.649-.094 1.302.669 1.461 1.705.158 1.035-.239 1.951-.888 2.045-.648.094-1.301-.67-1.46-1.705z" stroke="#111311" stroke-width=".891" stroke-miterlimit="10" stroke-linecap="round" stroke-linejoin="round"/><path d="M200.287 156.049c.137 1.038-.268 1.955-.904 2.047-.636.092-1.262-.676-1.398-1.713-.137-1.038.268-1.955.904-2.047.636-.093 1.263.675 1.398 1.713z" fill="#111311"/><path d="M197.964 156.387c-.158-1.035.239-1.951.887-2.045.648-.094 1.302.67 1.46 1.705.158 1.036-.239 1.951-.887 2.045-.648.094-1.302-.669-1.46-1.705zm-11.424 21.087s8.351 2.684 13.919-2.498m53.26 110.868a7.934 7.934 0 010 0z" stroke="#111311" stroke-width=".891" stroke-miterlimit="10" stroke-linecap="round" stroke-linejoin="round"/><path d="M253.299 286.226c-6.003-8.685-17.279-3.645-21.954-.999l-4.862 21.036-1.552 3.897s-9.009 8.047-10.238 9.75c-1.229 1.703-2.977 2.954-4.281 3.842-1.304.888-3.928 1.45-4.298 2.628-.369 1.178 3.399 2.139 4.644 1.649 1.245-.489 4.608-3.408 4.608-3.408l-2.501 5.021 14.231 8.209s1.448-4.512 2.247-7.267c.798-2.755 2.347-9.278 2.716-10.457.36-1.148 18.915-27.353 21.437-34.425a17.21 17.21 0 01-.197.524zM148.347 197.84s-4.369 3.409-5.684 7.108c-1.315 3.699-20.069 49.78-23.978 56.653-3.909 6.873-5.132 12.593-3.822 15.535 1.312 2.941 28.437 27.884 28.437 27.884s1.808 11.44 2.356 14.31a657.887 657.887 0 001.568 7.794l12.675-4.633s1.912 2.798 3.264 4.134c1.353 1.335 3.174 2.112 3.73.958.556-1.156-1.24-4.747-1.24-4.747s-.796-2.49-.697-4.493c.1-2.003-2.24-5.847-3.124-7.742-.883-1.895-9.276-9.332-9.276-9.332l-14.999-32.445 10.957-28.509s-2.504-34.445-.167-42.475z" fill="#9D9D9D" stroke="#111311" stroke-width=".891" stroke-miterlimit="10" stroke-linecap="round" stroke-linejoin="round"/><path d="M136.761 268.692l11.444-23.925s-3.077-38.91-.76-46.924c0 0-4.338 3.402-5.642 7.093-1.304 3.691-19.904 49.681-23.782 56.54-3.877 6.86-5.091 12.569-3.788 15.505.369.834 2.504 4.573 7.209 7.961 2.146-3.292 7.601-10.897 17.415-10.663l-2.096-5.587z" fill="#21A038" stroke="#111311" stroke-width=".891" stroke-miterlimit="10" stroke-linecap="round" stroke-linejoin="round"/><path d="M123.01 265.753s6.055-.3 11.25 2.559m-3.119-3.514s4.771 1.855 6.281 3.855" stroke="#111311" stroke-width=".891" stroke-miterlimit="10" stroke-linecap="round" stroke-linejoin="round"/><path d="M232.683 305.385s-14.206 29.301-12.336 46.004c1.87 16.701 2.954 36.857 2.954 36.857l53.667 5.048s8.525-19.622 9.32-31.803c.793-12.181 1.062-25.896 1.062-25.896l1.492-35.14-53.49-5.032-2.669 9.962z" fill="#111311" stroke="#111311" stroke-width=".853" stroke-miterlimit="10" stroke-linecap="round" stroke-linejoin="round"/><path d="M254.892 337.746s6.333 20.156 8.315 35.653c1.982 15.497 1.477 18.214 1.477 18.214m-2.106-36.601s10.451-7.387 14.528-16.994" stroke="#111311" stroke-width=".853" stroke-miterlimit="10" stroke-linecap="round" stroke-linejoin="round"/><path d="M273.854 217.743l-26.052 6.238s7.147 15.67 7.52 37.18c.372 21.51-3.524 42.986-3.524 42.986s6.016 4.642 18.516 4.343c12.501-.299 17.078-7.086 17.078-7.086s3.499-35.583.662-50.107c-2.838-14.523-14.2-33.554-14.2-33.554z" fill="#21A038" stroke="#111311" stroke-width=".853" stroke-miterlimit="10" stroke-linecap="round" stroke-linejoin="round"/><path d="M242.486 151.3s-6.028-1.069-9.48 5.823c-3.451 6.892-13.755 31.097-12.993 36.707.763 5.61 3.741 7.736 4.282 13.827.539 6.093-2.799 9.472-2.799 9.472s1.832 3.528 7.26 4.205c5.43.678 14.16-3.034 19.774-3.849 5.615-.815 17.78-.847 25.458-1.302 7.677-.454 10.001-6.109 10.001-6.109s-5.191.016-5.099-3.331c.092-3.348 5.805-15.398 5.113-24.19-.69-8.791-11.639-18.546-16.393-23.356-4.753-4.809-9.289-8.759-14.878-9.452-5.589-.693-9.016-.511-10.246 1.555z" fill="#111311" stroke="#111311" stroke-width=".853" stroke-miterlimit="10" stroke-linecap="round" stroke-linejoin="round"/><path d="M235.614 181.905s-5.729 8.093-6.021 15.712c-.291 7.618 5.124 8.638 6.338 7.757m32.269-32.47s10.477 12.328 11.197 24.061" stroke="#111311" stroke-width=".853" stroke-miterlimit="10" stroke-linecap="round" stroke-linejoin="round"/><path d="M247.76 202.25l3.488 15.793s9.604 14.669 14.732 13.208c5.128-1.462 2.099-15.522 2.168-17.458.07-1.936-.277-11.506-.277-11.506s-4.066 5.27-6.257 5.064c-2.192-.206-13.854-5.101-13.854-5.101z" fill="#9D9D9D" stroke="#111311" stroke-width=".853" stroke-miterlimit="10" stroke-linecap="round" stroke-linejoin="round"/><path d="M247.877 161.975s-10.861 15.817-11.143 18.094c-.283 2.278 4.743 16.93 6.255 19.908 1.513 2.978 13.606 10.319 16.459 10.764 2.854.446 6.142-2.612 7.145-5.178 1.002-2.563 4.762-9.483 5.07-13.503.115-1.501-3.013-18.791-4.426-19.81-1.413-1.02-19.36-10.275-19.36-10.275z" fill="#9D9D9D" stroke="#111311" stroke-width=".853" stroke-miterlimit="10" stroke-linecap="round" stroke-linejoin="round"/><path d="M250.656 185.761s-3.167-1.803-5.391.996m14.509-3.264s1.01-3.518 5.025-1.948m-15.686-.653s-5.224-1.028-7.157 2.517m14.578-5.097s3.215-3.631 7.075-1.72m-3.654 14.515s-1.943 2.363-4.391 1.337" stroke="#111311" stroke-width=".853" stroke-miterlimit="10" stroke-linecap="round" stroke-linejoin="round"/><path d="M264.684 193.037s-3.873 4.687-12.93 4.54c0 0 5.395 4.972 9.015 4.137 3.622-.834 3.915-8.677 3.915-8.677zm-26.036-4.176s-2.728-1.657-3.634 1.995c-.905 3.652 6.411 5.624 6.411 5.624l-2.777-7.619zm30.751-9.891s.18-1.476 1.586-.937c1.408.538 3.393 5.165 2.879 7.734-.516 2.568-2.236 2.428-2.236 2.428l-2.229-9.225z" fill="#9D9D9D" stroke="#111311" stroke-width=".853" stroke-miterlimit="10" stroke-linecap="round" stroke-linejoin="round"/><path d="M243.304 216.371s-20.94 11.652-22.059 13.996c-1.12 2.346 4.173 75.549 4.173 75.549s-23.981 42.19-20.288 50.252c3.693 8.063 23.759 17.347 24.58 18.827.822 1.48 13.84-35.632 19.214-49.654 5.375-14.023 14.468-39.425 16.291-51.687 1.824-12.262-.983-28.998-1.981-34.523-.997-5.527-2.83-15.163-2.83-15.163l-17.1-7.597z" fill="#111311" stroke="#111311" stroke-width=".853" stroke-miterlimit="10" stroke-linecap="round" stroke-linejoin="round"/><path d="M248.13 208.789s12.699 15.17 11.928 15.786c-.769.615-10.269 11.802-10.269 11.802l-10.417-19.379 8.758-8.209zm23.293 16.176s10.01 16.373 13.629 27.753c3.618 11.38 3.574 30.99 2.651 38.605l-1.741 14.367s.701 36.841 1.613 43.057c.912 6.216 2.183 17.721 2.183 17.721s2.061-.502 2.819-8.133c.757-7.632 1.877-38.869 1.062-51.381-.816-12.511.695-32.98-.346-36.758l-1.042-3.778 18.243-3.674s-9.705-11.5-11.334-27.836c-.741-7.433-3.872-11.673-5.825-13.437-1.951-1.764-17.384-5.001-20.04-5.081-2.655-.081-1.872 8.575-1.872 8.575z" fill="#111311" stroke="#111311" stroke-width=".853" stroke-miterlimit="10" stroke-linecap="round" stroke-linejoin="round"/><path d="M269.563 225.087s.787-2.223 1.756-1.778c.969.444 8.942 6.317 9.851 5.871.909-.444-7.21-13.396-8.848-15.317a20.695 20.695 0 00-3.364-3.143l-.412 3.319 1.017 11.048z" fill="#111311" stroke="#111311" stroke-width=".853" stroke-miterlimit="10" stroke-linecap="round" stroke-linejoin="round"/><path d="M286.247 226.902s3.869 20.132 3.74 28.634z" fill="#9D9D9D"/><path d="M286.247 226.902s3.869 20.132 3.74 28.634" stroke="#111311" stroke-width=".853" stroke-miterlimit="10" stroke-linecap="round" stroke-linejoin="round"/><path d="M285.477 266.566s5.224-13.953 6.158-14.732c.934-.78 8.069-3.143 8.638-3.234.57-.09 4.577 3.607 5.178 4.387.601.778 3.389 3.061 2.695 4.151-.694 1.092-2.382.066-3.348-.025-.965-.09-5.891 2.481-6.22 2.883-.33.403-2.292 3.83-2.968 4.777-.676.948-10.133 1.793-10.133 1.793z" fill="#9D9D9D" stroke="#111311" stroke-width=".853" stroke-miterlimit="10" stroke-linecap="round" stroke-linejoin="round"/><path d="M306.617 254.343s-1.736-.933-2.319-.7c-.583.233-7.462 2.755-7.886 3.196-.425.441-.975 1.157-.975 1.157m-1.524-2.323s1.285-1.418 2.463-1.98c1.181-.563 5.209-1.721 5.69-1.867.481-.147 2.195.208 2.195.208m-2.679-1.952s-7.653 2.064-8.193 2.686l-.538.623" stroke="#111311" stroke-width=".853" stroke-miterlimit="10" stroke-linecap="round" stroke-linejoin="round"/><path d="M293.181 264.817s7.536-4.41 10.742-5.522c3.206-1.11 9.114 2.093 10.098 3.774.985 1.681 1.569 9.327.708 14.894-.862 5.568-1.334 7.995-5.192 8.868-3.858.874-8.998 1.096-9.526 1.222-.526.127.289-10.563-2.197-16.622-2.485-6.059-4.633-6.614-4.633-6.614z" fill="#111311" stroke="#111311" stroke-width=".853" stroke-miterlimit="10" stroke-linecap="round" stroke-linejoin="round"/><path d="M283.875 267.267s-.782 20.018.26 22.583c1.042 2.565 4.468 2.36 8.104 1.821 3.636-.539 8.995-1.267 9.315-2.472.319-1.203 1.597-12.891.354-17.942-1.244-5.052-4.005-8.837-6.611-8.377-2.608.459-11.055 1.426-11.422 4.387z" fill="#111311" stroke="#111311" stroke-width=".853" stroke-miterlimit="10" stroke-linecap="round" stroke-linejoin="round"/><path d="M264.122 297.82l22.913-15.717-8.241-6.923-17.61 5.516s3.272 12.468 2.938 17.124z" fill="#9D9D9D" stroke="#111311" stroke-width=".853" stroke-miterlimit="10" stroke-linecap="round" stroke-linejoin="round"/><path d="M252.483 306.842s2.179.206 5.486-2.058c3.309-2.264 6.241-3.705 6.314-10.998.074-7.296-1.967-18.655-3.425-20.225-1.458-1.57-12.148-.862-12.508-.181-.359.683 6.627 14.371 6.382 21.935-.246 7.565-2.249 11.527-2.249 11.527z" fill="#111311" stroke="#111311" stroke-width=".853" stroke-miterlimit="10" stroke-linecap="round" stroke-linejoin="round"/><path d="M224.539 231.046s-1.158-3.2-3.987-.777c-2.831 2.425-5.118 9.798-4.466 19.025.652 9.226.871 47.626 2.202 52.477 1.33 4.851 2.558 9.407 5.945 9.87 3.389.464 14.749-.037 22.761-2.432 8.011-2.392 8.755-11.773 7.165-20.086-1.592-8.313-5.538-15.417-8.153-17.669-2.615-2.252-3.8-4.941-6.079-11.028-2.28-6.087-7.273-21.452-8.917-23.756" fill="#111311"/><path d="M224.539 231.046s-1.158-3.2-3.987-.777c-2.831 2.425-5.118 9.798-4.466 19.025.652 9.226.871 47.626 2.202 52.477 1.33 4.851 2.558 9.407 5.945 9.87 3.389.464 14.749-.037 22.761-2.432 8.011-2.392 8.755-11.773 7.165-20.086-1.592-8.313-5.538-15.417-8.153-17.669-2.615-2.252-3.8-4.941-6.079-11.028-2.28-6.087-7.273-21.452-8.917-23.756m.464 48.34a16.93 16.93 0 01-2.37 1.48m12.328-12.648s-3.476 5.463-7.945 9.528" stroke="#111311" stroke-width=".853" stroke-miterlimit="10" stroke-linecap="round" stroke-linejoin="round"/><path d="M286.986 269.221s-20.722.084-25.996-.566c-5.274-.649-12.438-4.273-12.438-4.273s-8.572-4.786-10.398-5.99c-1.825-1.204-6.42-1.641-7.745-1.179-1.325.462-4.395 2.523-4.155 4.016.24 1.493 2.035.635 2.96-.012.925-.647 2.388-1.097 2.388-1.097l4.333 1.442.692 1.244s-6.269.579-7.158.935c-.89.357-3.933 5.655-4.493 6.779-.561 1.123-.125 1.017.71 1.096l.836.08s-.703 2.286.097 2.656c.8.37 1.986-.105 1.986-.105s.85 1.111 1.268 1.151c.418.04 5.037-2.021 5.787-2.391.749-.369 6.578 1.509 8.109 1.655 1.534.146 7.4.558 7.4.558s27.098 11.111 30.788 12.051c3.689.939 6.214 1.033 8.14-3.195 1.926-4.229.021-13.969-3.111-14.855z" fill="#9D9D9D" stroke="#111311" stroke-width=".853" stroke-miterlimit="10" stroke-linecap="round" stroke-linejoin="round"/><path d="M228.486 273.81s4.265-3.94 5.303-4.422c1.039-.481 3.062-1.014 3.062-1.014m-10.507 2.941l4.457-4.357 4.359-1.326M125.556 153.639s1.158.694 3.012 1.39c1.853.694 6.486 2.316 8.571 4.633 2.084 2.316 1.39 7.876 1.39 7.876m-39.42 5.371l-1.815 3.893" stroke="#111311" stroke-width=".853" stroke-miterlimit="10" stroke-linecap="round" stroke-linejoin="round"/><path d="M84.479 160.681s-1.264 5.968-2.54 7.336c-1.277 1.367-3.305 2.984-2.632 5.967.674 2.984 4.607 4.849 4.595 5.346-.012.498-7.132 1.865-6.938 4.103.195 2.239 2.118 4.973 2.118 4.973s-5.265 1.741-5.71 4.725c-.445 2.984 1.347 5.967 1.32 7.087-.026 1.119-3.195 3.605-2.248 5.595.945 1.989 3.19 1.74 3.305 2.113.115.373-1.292 1.989-1.316 2.984-.024.994.7 1.865.7 1.865h42.023l-11.918-62.164-15.814 6.091-4.945 3.979z" fill="#21A038" stroke="#111311" stroke-width=".853" stroke-miterlimit="10" stroke-linecap="round" stroke-linejoin="round"/><path d="M141.408 301.755s8.667 19.725 9.805 24.567c1.137 4.842 1.677 26.395-.127 34.789-3.286 15.286-12.703 29.768-12.703 29.768H90.648l-9.843-45.962L95.18 300.14l46.227 1.615z" fill="#9D9D9D" stroke="#111311" stroke-width=".853" stroke-miterlimit="10" stroke-linecap="round" stroke-linejoin="round"/><path d="M133.491 339.771l-4.018 10.401 1.914 40.484" stroke="#111311" stroke-width=".853" stroke-miterlimit="10" stroke-linecap="round" stroke-linejoin="round"/><path d="M140.649 288.664s8.434 7.172 9.444 9.863c1.011 2.689 1.656 20.443 2.121 23.491.464 3.049-1.579 5.917-1.579 5.917l-7.271-18.111s-.701-8.069-.867-8.608L141 296.374l-.351-7.71z" fill="#9D9D9D" stroke="#111311" stroke-width=".853" stroke-miterlimit="10" stroke-linecap="round" stroke-linejoin="round"/><path d="M147.601 305.162s.101 3.227.403 5.559c.302 2.331 1.273 6.635-.725 7.711" fill="#9D9D9D"/><path d="M147.601 305.162s.101 3.227.403 5.559c.302 2.331 1.273 6.635-.725 7.711" stroke="#111311" stroke-width=".853" stroke-miterlimit="10" stroke-linecap="round" stroke-linejoin="round"/><path d="M110.044 212.27l11.468.358 8.199.271 9.534 7.979s8.001 39.81 8.657 42.321c.656 2.51-6.794 21.34-7.376 23.132-.581 1.794.881 15.423.881 15.423s-3.669 3.407-15.543 5.021c-11.875 1.613-25.561-3.407-25.561-3.407s9.003-23.672 10.925-36.404c0 0 1.672-24.567 1.125-31.56-.548-6.995-2.309-23.134-2.309-23.134z" fill="#21A038" stroke="#111311" stroke-width=".853" stroke-miterlimit="10" stroke-linecap="round" stroke-linejoin="round"/><path d="M138.652 271.195l-18.565 9.416m17.488-6.187l-8.609 4.304" stroke="#111311" stroke-width=".853" stroke-miterlimit="10" stroke-linecap="round" stroke-linejoin="round"/><path d="M106.904 199.088s6.897 23.882 7.789 28.109c.893 4.228 9.724 9.2 15.136 6.465 5.412-2.735 3.674-7.957 2.759-11.189-.917-3.233-2.877-9.574-2.877-9.574l2.087-19.395s-6.552 8.703-8.938 9.697c-2.387.995-15.956-4.113-15.956-4.113z" fill="#9D9D9D" stroke="#111311" stroke-width=".853" stroke-miterlimit="10" stroke-linecap="round" stroke-linejoin="round"/><path d="M119.808 205.371l9.039 8.722 2.22-18.712-11.259 9.99z" fill="#111311" stroke="#111311" stroke-width=".853" stroke-miterlimit="10" stroke-linecap="round" stroke-linejoin="round"/><path d="M129.164 213.142l-.475 8.562" stroke="#111311" stroke-width=".853" stroke-miterlimit="10" stroke-linecap="round" stroke-linejoin="round"/><path d="M129.773 210.926s12.773 36.492 14.187 44.741c1.414 8.249 1.729 10.043 1.839 12.912.11 2.868-2.195 9.146-2.195 9.146s9.057-11.119 9.113-20.802c.055-9.685-6.523-38.934-9.593-40.707-12.204-7.048-13.351-5.29-13.351-5.29z" fill="#111311" stroke="#111311" stroke-width=".853" stroke-miterlimit="10" stroke-linecap="round" stroke-linejoin="round"/><path d="M141.63 228.918s5.454 16.414 4.8 28.657" stroke="#111311" stroke-width=".853" stroke-miterlimit="10" stroke-linecap="round" stroke-linejoin="round"/><path d="M98.29 170.504l5.794-8.206 26.816 27.228s-1.63 15.914-1.642 16.411c-.012.498 1.662 3.233 1.662 3.233s.732.622 1.332 1.492c.6.87-.021.87-.175 2.114-.155 1.243.7 1.865 1.307 2.487.606.621 2.083 1.243 2.941 1.74.858.497.085 1.616-.563 2.735-.649 1.119-1.571 3.233-.506 5.47 1.065 2.239 1.695 1.865 3.518 3.605 1.822 1.741-.827 3.358-.827 3.358s1.376-.374 2.504-.746c1.128-.373 1.656-1.617 1.18-2.487-.477-.87-1.402-3.73-1.017-4.227.385-.497 3.908-2.237 4.936-3.606 1.028-1.367-.085-1.615.797-2.113.883-.497 2.651-1.617 3.066-3.357.415-1.74-1.647-3.854-1.011-4.476.637-.622 3.028-4.449 3.056-5.568.026-1.119-1.39-3.012-1.39-3.012s.923-.744 1.508-4.35c.585-3.605-2.248-4.724-2.448-6.713-.2-1.99 2.726-4.725 2.77-11.688.044-6.961-11.467-9.075-11.819-9.946-.351-.87.055-2.238-.149-4.103-.203-1.865-4.724-5.097-4.724-5.097s.541-1.865.945-3.108c.403-1.244-.191-2.362-2.381-4.352-2.19-1.989-12.78-11.313-17.231-12.308-4.453-.995-11.905 3.854-12.788 4.351-.882.498-7.927-1.243-10.082.498-2.156 1.74-2.85 4.724-3.378 5.968-.528 1.243-2.392 1.243-3.541 2.486-1.15 1.243-3.028 12.06-3.028 12.06" fill="#21A038"/><path d="M98.29 170.504l5.794-8.206 26.816 27.228s-1.63 15.914-1.642 16.411c-.012.498 1.662 3.233 1.662 3.233s.732.622 1.332 1.492c.6.87-.021.87-.175 2.114-.155 1.243.7 1.865 1.307 2.487.606.621 2.083 1.243 2.941 1.74.858.497.085 1.616-.563 2.735-.649 1.119-1.571 3.233-.506 5.47 1.065 2.239 1.695 1.865 3.518 3.605 1.822 1.741-.827 3.358-.827 3.358s1.376-.374 2.504-.746c1.128-.373 1.656-1.617 1.18-2.487-.477-.87-1.402-3.73-1.017-4.227.385-.497 3.908-2.237 4.936-3.606 1.028-1.367-.085-1.615.797-2.113.883-.497 2.651-1.617 3.066-3.357.415-1.74-1.647-3.854-1.011-4.476.637-.622 3.028-4.449 3.056-5.568.026-1.119-1.39-3.012-1.39-3.012s.923-.744 1.508-4.35c.585-3.605-2.248-4.724-2.448-6.713-.2-1.99 2.726-4.725 2.77-11.688.044-6.961-11.467-9.075-11.819-9.946-.351-.87.055-2.238-.149-4.103-.203-1.865-4.724-5.097-4.724-5.097s.541-1.865.945-3.108c.403-1.244-.191-2.362-2.381-4.352-2.19-1.989-12.78-11.313-17.231-12.308-4.453-.995-11.905 3.854-12.788 4.351-.882.498-7.927-1.243-10.082.498-2.156 1.74-2.85 4.724-3.378 5.968-.528 1.243-2.392 1.243-3.541 2.486-1.15 1.243-3.028 12.06-3.028 12.06" stroke="#111311" stroke-width=".853" stroke-miterlimit="10" stroke-linecap="round" stroke-linejoin="round"/><path d="M109.324 208.236s12.981 45.637 13.554 51.556c.575 5.917-19.732 44.652-23.874 52.721-4.14 8.07-13.165 32.637-14.625 41.066-1.46 8.428-2.6 18.47-2.6 18.47s-10.812-5.2-17.876-9.683c-7.065-4.483-8.26-6.994-7.7-7.89.56-.897 3.52-12.015 3.52-12.015s-6.11-6.815-5.735-7.533c.376-.717 14.265-48.417 14.265-48.417s3.656-76.751 5.09-76.751c1.435 0 35.981-1.524 35.981-1.524z" fill="#111311" stroke="#111311" stroke-width=".853" stroke-miterlimit="10" stroke-linecap="round" stroke-linejoin="round"/><path d="M108.014 230.028l14.865 29.764" stroke="#111311" stroke-width=".853" stroke-miterlimit="10" stroke-linecap="round" stroke-linejoin="round"/><path d="M81.939 210.297s-10.708-2.152-12.57.717c-1.864 2.87-18.285 51.467-19.29 55.95-1.006 4.483 29.75 37.658 29.75 37.658l15.858-10.58-18.727-26.361 10.238-37.658" fill="#111311"/><path d="M81.939 210.297s-10.708-2.152-12.57.717c-1.864 2.87-18.285 51.467-19.29 55.95-1.006 4.483 29.75 37.658 29.75 37.658l15.858-10.58-18.727-26.361 10.238-37.658" stroke="#111311" stroke-width=".853" stroke-miterlimit="10" stroke-linecap="round" stroke-linejoin="round"/><path d="M84.51 241.727l-7.645 23.629 17.103 25.638m-7.374-56.679l-1.095 3.494" stroke="#111311" stroke-width=".853" stroke-miterlimit="10" stroke-linecap="round" stroke-linejoin="round"/><path d="M93.886 290.992L76.763 305.25l5.825 7.076 18.016-13.889-6.718-7.445z" fill="#9D9D9D" stroke="#111311" stroke-width=".853" stroke-miterlimit="10" stroke-linecap="round" stroke-linejoin="round"/><path d="M99.332 299.064s14.322 15.78 15.918 16.498c1.597.718 4.742 4.125 5.599 5.738.858 1.614 2.061 3.766 3.294 4.662 1.234.897 1.387 1.973-.778 2.512-2.165.537-4.142.717-5.337-1.794-1.193-2.51-3.11-4.842-3.11-4.842l-12.236 9.146s-2.634-9.684-2.945-11.657c-.311-1.972-.95-5.2-.95-5.2l-8.237-7.89 8.782-7.173z" fill="#9D9D9D" stroke="#111311" stroke-width=".853" stroke-miterlimit="10" stroke-linecap="round" stroke-linejoin="round"/><path d="M79.265 197.233s-1.187 7.955-.508 10.693c.72 2.896 6.548 2.377 5.352 6.223-.385 1.24-1.891 2.563-1.42 3.97.483 1.441 2.38 1.523 3.433 2.341 1.936 1.504 1.244 3.118 1.901 5.247.477 1.538 2.115 2.07 2.558 3.29.525 1.445-.482 2.348 1.122 3.919 2.793 2.736 4.894 3.232 5.273 2.984.379-.248-.352-.87 1.41-1.741 1.761-.87 5.157-2.486 4.57-3.854a3437.89 3437.89 0 01-1.173-2.725c.82 1.888 3.366-.019 4.062-1.013 1.588-2.268-.841-4.711-.557-7.162.314-2.717 3.374-4.117 3.716-6.855.335-2.681-2.449-4.527-1.843-6.986.276-1.119.43-2.363.43-2.363s-.809-2.486-2.032-3.357c-1.222-.87-1.635-4.351-1.729-5.594" fill="#21A038"/><path d="M79.265 197.233s-1.187 7.955-.508 10.693c.72 2.896 6.548 2.377 5.352 6.223-.385 1.24-1.891 2.563-1.42 3.97.483 1.441 2.38 1.523 3.433 2.341 1.936 1.504 1.244 3.118 1.901 5.247.477 1.538 2.115 2.07 2.558 3.29.525 1.445-.482 2.348 1.122 3.919 2.793 2.736 4.894 3.232 5.273 2.984.379-.248-.352-.87 1.41-1.741 1.761-.87 5.157-2.486 4.57-3.854a3437.89 3437.89 0 01-1.173-2.725c.82 1.888 3.366-.019 4.062-1.013 1.588-2.268-.841-4.711-.557-7.162.314-2.717 3.374-4.117 3.716-6.855.335-2.681-2.449-4.527-1.843-6.986.276-1.119.43-2.363.43-2.363s-.809-2.486-2.032-3.357c-1.222-.87-1.635-4.351-1.729-5.594" stroke="#111311" stroke-width=".853" stroke-miterlimit="10" stroke-linecap="round" stroke-linejoin="round"/><path d="M101.63 157.813s-10.051 14.614-9.282 17.706c.768 3.092 8.438 22.906 11.06 24.874 2.622 1.967 13.19 6.605 16.7 6.746 3.509.14 6.073-1.265 7.537-3.655 1.463-2.388 7.038-12.085 7.089-14.193.051-2.108-4.448-22.338-5.284-22.619-.836-.282-27.82-8.859-27.82-8.859z" fill="#9D9D9D" stroke="#000" stroke-width=".853" stroke-miterlimit="10" stroke-linecap="round" stroke-linejoin="round"/><path d="M116.99 173.34s-.289 3.901.07 5.168c.359 1.268 3.661 5.851 3.739 6.631.079.78-1.207 1.56-2.98 2.243" stroke="#111311" stroke-width=".853" stroke-miterlimit="10" stroke-linecap="round" stroke-linejoin="round"/><path d="M94.304 181.559s-2.2-1.971-3.378.419c-1.179 2.39-.272 5.624 3.455 8.298 3.728 2.674 4.57 2.675 4.57 2.675l-4.647-11.392zm36.781-9.835s1.991-.984 2.914 1.546c.922 2.529-.499 8.995-.499 8.995l-2.415-10.541zM112.026 192.3s6.473-.342 8.042-1.104c1.569-.765 4.259-3.968 4.259-3.968s.173 7.192-3.22 8.339c-2.384.806-9.081-3.267-9.081-3.267z" fill="#9D9D9D" stroke="#111311" stroke-width=".853" stroke-miterlimit="10" stroke-linecap="round" stroke-linejoin="round"/><path d="M101.42 177.142s.41-3.779 6.905-4.351z" fill="#9D9D9D"/><path d="M101.42 177.142s.41-3.779 6.905-4.351" stroke="#111311" stroke-width=".853" stroke-miterlimit="10" stroke-linecap="round" stroke-linejoin="round"/><path d="M116.895 170.2s3.99-3.578 8.233.701z" fill="#9D9D9D"/><path d="M116.895 170.2s3.99-3.578 8.233.701" stroke="#111311" stroke-width=".853" stroke-miterlimit="10" stroke-linecap="round" stroke-linejoin="round"/><path d="M109.362 179.057c.36 1.16.029 2.29-.742 2.527-.769.235-1.686-.514-2.047-1.673-.36-1.161-.03-2.292.741-2.528.769-.235 1.686.513 2.048 1.674zm13.266-3.676c.36 1.16.028 2.291-.741 2.527-.77.236-1.687-.514-2.047-1.674-.362-1.16-.03-2.291.74-2.527.769-.235 1.687.513 2.048 1.674z" fill="#111311"/></g><defs><clipPath id="clip0_3040_437"><path fill="#fff" d="M0 0h426.632v386H0z"/></clipPath></defs></svg>