<svg width="25" height="25" fill="none" xmlns="http://www.w3.org/2000/svg"><circle cx="12.5" cy="12.5" r="12.5" fill="#fff"/><path d="M13.805 15.264H6.83v-2.218h6.897c.52 0 .946-.077 1.278-.23a1.56 1.56 0 00.736-.653c.157-.28.236-.613.236-.997a2.17 2.17 0 00-.236-1.016 1.735 1.735 0 00-.723-.722c-.324-.18-.729-.269-1.214-.269H11.44V20H8.69V6.91h5.114c1.035 0 1.922.184 2.659.555.741.367 1.308.87 1.7 1.509.392.635.586 1.355.582 2.16.004.844-.194 1.575-.595 2.193-.4.618-.971 1.095-1.713 1.431-.741.337-1.62.506-2.633.506zm.492.843v2.218H6.83v-2.218h7.466z" fill="#21A038"/></svg>