<svg width="427" height="386" viewBox="0 0 427 386" fill="none" xmlns="http://www.w3.org/2000/svg">
<g clip-path="url(#clip0_3040_437)">
<g opacity="0.3">
<path d="M342.617 176.642H399.396V218.946H342.617V176.642ZM279.96 29.2037H336.74V70.9147H280.248V76.3645H336.74V121.054H280.248V126.502H336.74V171.193H280.248V176.642H336.74V218.946H279.96V29.2037ZM342.617 76.3645H399.396V121.054H342.617V76.3645ZM342.617 126.502H399.396V171.192H342.617V126.502ZM399.396 70.9147H342.617V29.2037H399.396V70.9147ZM275.27 226.395H404.085V21.7539H275.27V226.395Z" stroke="black" stroke-width="0.853263" stroke-miterlimit="10" stroke-linecap="round" stroke-linejoin="round"/>
<path d="M328.602 41.6757L299.956 65.3828" stroke="black" stroke-width="0.853263" stroke-miterlimit="10" stroke-linecap="round" stroke-linejoin="round"/>
<path d="M385.401 88.1021L356.755 111.809" stroke="black" stroke-width="0.853263" stroke-miterlimit="10" stroke-linecap="round" stroke-linejoin="round"/>
<path d="M320.699 188.365L292.053 212.072" stroke="black" stroke-width="0.853263" stroke-miterlimit="10" stroke-linecap="round" stroke-linejoin="round"/>
<path d="M313.579 48.5902L300.449 59.4559" stroke="black" stroke-width="0.853263" stroke-miterlimit="10" stroke-linecap="round" stroke-linejoin="round"/>
<path d="M383.219 82.67L370.089 93.5356" stroke="black" stroke-width="0.853263" stroke-miterlimit="10" stroke-linecap="round" stroke-linejoin="round"/>
<path d="M319.011 195.773L305.882 206.639" stroke="black" stroke-width="0.853263" stroke-miterlimit="10" stroke-linecap="round" stroke-linejoin="round"/>
<path d="M315.06 143.42L301.931 154.286" stroke="black" stroke-width="0.853263" stroke-miterlimit="10" stroke-linecap="round" stroke-linejoin="round"/>
<path d="M382.232 189.352L369.101 200.218" stroke="black" stroke-width="0.853263" stroke-miterlimit="10" stroke-linecap="round" stroke-linejoin="round"/>
<path d="M267.852 226.26H412.072V244.176H267.852V226.26Z" stroke="black" stroke-width="0.853263" stroke-miterlimit="10" stroke-linecap="round" stroke-linejoin="round"/>
</g>
<path d="M340.312 160.036C335.435 172.229 319.141 177.588 303.918 172.006C288.694 166.422 280.306 152.01 285.182 139.816C290.058 127.621 306.352 122.263 321.575 127.846C336.799 133.429 345.188 147.841 340.312 160.036Z" fill="#21A038"/>
<path d="M285.181 139.816C290.057 127.622 306.352 122.263 321.575 127.846C336.799 133.43 345.188 147.841 340.312 160.036C335.436 172.23 319.142 177.589 303.918 172.006C288.694 166.422 280.306 152.01 285.181 139.816Z" stroke="#111311" stroke-width="0.830991" stroke-miterlimit="10" stroke-linecap="round" stroke-linejoin="round"/>
<path d="M294.476 158.221C294.476 158.221 288.358 159.248 286.157 155.614C283.956 151.979 289.342 142.672 294.383 138.7C299.422 134.728 312.129 134.14 318.446 135.539C324.763 136.938 331.674 142.785 331.996 148.192C332.318 153.6 329.452 158.517 329.083 160.174C328.713 161.83 324.97 161.42 324.554 160.527C324.137 159.632 317.848 146.501 316.323 145.769C314.798 145.036 313.57 146.032 311.695 146.817C309.82 147.601 295.761 151.999 295.761 151.999L294.476 158.221Z" fill="#111311" stroke="#111311" stroke-width="0.830991" stroke-miterlimit="10" stroke-linecap="round" stroke-linejoin="round"/>
<path d="M297.146 295.648L297.012 277.923L288.266 298.463L288.266 298.465C286.508 300.856 284.388 303.961 283.273 306.433C281.16 311.122 286.351 327.245 287.056 325.683C287.759 324.12 293.363 303.669 293.363 303.669C293.363 303.669 294.363 300.162 294.524 297.34L297.146 295.648Z" fill="#9D9D9D" stroke="#111311" stroke-width="0.830991" stroke-miterlimit="10" stroke-linecap="round" stroke-linejoin="round"/>
<path d="M293.764 307.612C293.764 307.612 288.053 308.942 286.351 320.936C285.886 324.207 285.497 359.05 284.681 364.797L281.298 388.634L311.342 391.908L318.263 369.679L317.901 392.135L348.034 395.419C348.034 395.419 356.004 360.834 356.851 356.525C357.698 352.216 361.118 343.053 362.267 329.975C363.418 316.896 361.354 311.537 361.354 311.537L295.088 303.092L293.764 307.612Z" fill="#111311" stroke="#111311" stroke-width="0.830991" stroke-miterlimit="10" stroke-linecap="round" stroke-linejoin="round"/>
<path d="M314.545 189.181C314.545 189.181 298.741 200.112 295.214 203.195C291.557 206.392 290.114 226.061 292.249 239.956C294.382 253.852 295.724 275.121 295.332 279.348C294.941 283.574 292.04 308.785 292.04 308.785C292.04 308.785 315.647 321.831 331.333 320.989C347.022 320.145 358.865 314.611 358.865 314.611C358.865 314.611 362.531 271.252 363.867 261.791C365.203 252.332 367.609 220.788 367.136 209.636C366.663 198.484 360.523 191.194 355.367 189.988C350.21 188.783 330.721 185.718 330.721 185.718L314.545 189.181Z" fill="#9D9D9D" stroke="#111311" stroke-width="0.830991" stroke-miterlimit="10" stroke-linecap="round" stroke-linejoin="round"/>
<path d="M306.174 185.857C306.174 185.857 309.896 205.085 310.926 205.384C311.957 205.684 315.19 203.056 315.19 203.056L329.025 186.124L326.911 168.87C326.911 168.87 323.096 177.461 317.361 182.61C311.628 187.758 306.174 185.857 306.174 185.857Z" fill="#9D9D9D" stroke="#111311" stroke-width="0.830991" stroke-miterlimit="10" stroke-linecap="round" stroke-linejoin="round"/>
<path d="M318.899 183.41L308.6 195.981L306.026 185.706L318.899 183.41Z" fill="#111311" stroke="#111311" stroke-width="0.830991" stroke-miterlimit="10" stroke-linecap="round" stroke-linejoin="round"/>
<path d="M316.986 140.491C316.986 140.491 308.869 145.736 302.751 147.297C296.63 148.859 293.609 149.365 293.609 149.365C293.609 149.365 293.725 161.778 293.767 165.265C293.809 168.753 294.179 174.645 296.205 177.373C298.231 180.102 303.203 186.635 305.629 188.433C308.055 190.23 312.718 189.485 314.136 188.943C315.553 188.401 324.922 177.162 325.551 175.559C326.181 173.956 326.354 168.959 326.354 168.959C326.354 168.959 330.058 167.412 330.858 165.549C331.659 163.687 331.483 156.422 330.563 155.347C329.643 154.271 327.771 155.181 327.351 156.25C326.931 157.319 325.907 158.879 325.907 158.879C325.907 158.879 326.183 155.984 325.38 154.085C324.577 152.186 324.674 151.5 322.458 149.168C320.241 146.837 316.986 140.491 316.986 140.491Z" fill="#9D9D9D" stroke="#111311" stroke-width="0.830991" stroke-miterlimit="10" stroke-linecap="round" stroke-linejoin="round"/>
<path d="M304.273 166.398L304.143 170.203C304.143 170.203 308.574 170.547 310.894 168.538" stroke="#111311" stroke-width="0.830991" stroke-miterlimit="10" stroke-linecap="round" stroke-linejoin="round"/>
<path d="M301.251 173.784C301.251 173.784 304.312 175.261 309.488 174.265C314.664 173.27 316.383 169.757 316.383 169.757" stroke="#111311" stroke-width="0.830991" stroke-miterlimit="10" stroke-linecap="round" stroke-linejoin="round"/>
<path d="M302.348 156.975C302.348 156.975 296.773 154.344 294.572 157.65" stroke="#111311" stroke-width="0.830991" stroke-miterlimit="10" stroke-linecap="round" stroke-linejoin="round"/>
<path d="M308.575 155.545C308.575 155.545 312.958 152.053 316.846 154.14" stroke="#111311" stroke-width="0.830991" stroke-miterlimit="10" stroke-linecap="round" stroke-linejoin="round"/>
<path d="M301.086 162.1C301.347 163.204 301.118 164.2 300.576 164.321C300.034 164.442 299.381 163.644 299.121 162.539C298.861 161.433 299.088 160.439 299.631 160.317C300.174 160.197 300.825 160.994 301.086 162.1Z" fill="#111311"/>
<path d="M314.147 159.801C314.408 160.906 314.179 161.9 313.636 162.022C313.094 162.142 312.443 161.345 312.181 160.24C311.921 159.134 312.149 158.139 312.692 158.019C313.235 157.898 313.885 158.695 314.147 159.801Z" fill="#111311"/>
<path d="M340.257 212.263L345.641 256.134C345.641 256.134 344.762 258.156 344.984 259.454C345.206 260.752 345.26 261.817 345.26 261.817C345.26 261.817 339.807 278.171 335.639 288.094C331.471 298.018 318.537 319.255 318.587 321.806C318.638 324.357 313.686 342.887 314.755 343.855C315.824 344.824 318.412 346.388 319.201 346.477C319.989 346.566 323.483 347.383 324.666 347.516C325.849 347.649 330.217 347.929 331.236 346.346C332.254 344.765 332.201 343.698 330.96 343.983C329.719 344.267 327.718 344.254 327.718 344.254L327.159 342.494C327.159 342.494 329.15 335.296 328.911 329.754C328.671 324.213 328.535 322.289 328.535 322.289C328.535 322.289 359.018 282.666 361.095 274.84C363.171 267.015 365.956 258.42 366.501 254.452C367.047 250.484 368.012 214.325 367.374 210.224C366.737 206.123 366.691 202.088 363.995 198.391C361.298 194.695 359.128 194.45 357.55 194.273" fill="#9D9D9D"/>
<path d="M340.257 212.263L345.641 256.134C345.641 256.134 344.762 258.156 344.984 259.454C345.206 260.752 345.26 261.817 345.26 261.817C345.26 261.817 339.807 278.171 335.639 288.094C331.471 298.018 318.537 319.255 318.587 321.806C318.638 324.357 313.686 342.887 314.755 343.855C315.824 344.824 318.412 346.388 319.201 346.477C319.989 346.566 323.483 347.383 324.666 347.516C325.849 347.649 330.217 347.929 331.236 346.346C332.254 344.765 332.201 343.698 330.96 343.983C329.719 344.267 327.718 344.254 327.718 344.254L327.159 342.494C327.159 342.494 329.15 335.296 328.911 329.754C328.671 324.213 328.535 322.289 328.535 322.289C328.535 322.289 359.018 282.666 361.095 274.84C363.171 267.015 365.956 258.42 366.501 254.452C367.047 250.484 368.012 214.325 367.374 210.224C366.737 206.123 366.691 202.088 363.995 198.391C361.298 194.695 359.128 194.45 357.55 194.273" stroke="#111311" stroke-width="0.830991" stroke-miterlimit="10" stroke-linecap="round" stroke-linejoin="round"/>
<path d="M346.924 261.013C346.924 261.013 353.374 258.99 358.257 262.081" stroke="#111311" stroke-width="0.830991" stroke-miterlimit="10" stroke-linecap="round" stroke-linejoin="round"/>
<path d="M351.435 256.937C351.435 256.937 358.732 255.886 362.382 261.825" stroke="#111311" stroke-width="0.830991" stroke-miterlimit="10" stroke-linecap="round" stroke-linejoin="round"/>
<path d="M339.015 280.343C338.015 282.949 337.004 285.487 336.058 287.706C331.811 297.67 318.641 319.001 318.689 321.56C318.737 324.121 313.684 342.726 314.768 343.698C315.853 344.669 318.482 346.236 319.284 346.324C320.086 346.413 323.635 347.229 324.838 347.362C326.04 347.495 330.478 347.771 331.515 346.183C332.552 344.593 332.499 343.522 331.237 343.81C329.977 344.096 327.942 344.085 327.942 344.085L327.376 342.32C327.376 342.32 329.408 335.091 329.171 329.529C328.935 323.968 328.799 322.036 328.799 322.036C328.799 322.036 343.705 302.912 353.559 288.559C349.33 282.574 343.186 280.803 339.015 280.343Z" fill="#9D9D9D" stroke="#111311" stroke-width="0.830991" stroke-miterlimit="10" stroke-linecap="round" stroke-linejoin="round"/>
<path d="M323.424 342.839C323.424 342.839 325.201 344.846 325.823 345.491C326.445 346.136 326.6 346.73 327.904 347.037" fill="#9D9D9D"/>
<path d="M323.424 342.839C323.424 342.839 325.201 344.846 325.823 345.491C326.445 346.136 326.6 346.73 327.904 347.037" stroke="#111311" stroke-width="0.830991" stroke-miterlimit="10" stroke-linecap="round" stroke-linejoin="round"/>
<path d="M319.184 343.368C319.184 343.368 321.969 346.065 323.827 346.754Z" fill="#9D9D9D"/>
<path d="M319.184 343.368C319.184 343.368 321.969 346.065 323.827 346.754" stroke="#111311" stroke-width="0.830991" stroke-miterlimit="10" stroke-linecap="round" stroke-linejoin="round"/>
<path d="M315.83 342.467C315.83 342.467 317.014 344.55 318.515 345.457Z" fill="#9D9D9D"/>
<path d="M315.83 342.467C315.83 342.467 317.014 344.55 318.515 345.457" stroke="#111311" stroke-width="0.830991" stroke-miterlimit="10" stroke-linecap="round" stroke-linejoin="round"/>
<path d="M292.922 302.4C292.922 302.4 292.862 308.101 293.025 309.044C293.187 309.988 292.521 311.611 292.323 315.136C292.125 318.662 292.485 322.403 290.401 321.556C288.317 320.706 288.13 314.671 288.487 313.167C288.843 311.664 286.875 306.818 286.875 306.818" fill="#9D9D9D"/>
<path d="M292.922 302.4C292.922 302.4 292.862 308.101 293.025 309.044C293.187 309.988 292.521 311.611 292.323 315.136C292.125 318.662 292.485 322.403 290.401 321.556C288.317 320.706 288.13 314.671 288.487 313.167C288.843 311.664 286.875 306.818 286.875 306.818" stroke="#111311" stroke-width="0.830991" stroke-miterlimit="10" stroke-linecap="round" stroke-linejoin="round"/>
<path d="M254.42 273.423C252.783 268.851 243.938 207.316 243.938 207.316C239.844 215.755 232.686 258.625 232.686 258.625L231.681 281.628L230.846 285.878C235.424 283.253 246.465 278.257 252.355 286.888C252.514 286.478 252.636 286.131 252.713 285.856C254.298 280.187 256.057 277.996 254.42 273.423Z" fill="#21A038"/>
<path d="M254.42 273.423C252.783 268.851 243.938 207.316 243.938 207.316C239.844 215.755 232.686 258.625 232.686 258.625L231.681 281.628L230.846 285.878C235.424 283.253 246.465 278.257 252.355 286.888C252.514 286.478 252.636 286.131 252.713 285.856C254.298 280.187 256.057 277.996 254.42 273.423Z" stroke="#111311" stroke-width="0.89071" stroke-miterlimit="10" stroke-linecap="round" stroke-linejoin="round"/>
<path d="M249.214 278.647C250.338 278.955 251.414 279.382 252.397 279.961" stroke="#111311" stroke-width="0.89071" stroke-miterlimit="10" stroke-linecap="round" stroke-linejoin="round"/>
<path d="M233.199 279.037C233.199 279.037 239.096 277.393 245.126 277.944" stroke="#111311" stroke-width="0.89071" stroke-miterlimit="10" stroke-linecap="round" stroke-linejoin="round"/>
<path d="M251.634 276.485C251.634 276.485 247.068 272.837 242.915 273.759" stroke="#111311" stroke-width="0.89071" stroke-miterlimit="10" stroke-linecap="round" stroke-linejoin="round"/>
<path d="M138.152 387.173L144.941 340.901L151.284 315.757L225.729 320.092L230.075 338.951L227.095 396.125L189.577 392.606L187.159 354.325L184.681 357.756L179.782 390.873L138.152 387.173Z" fill="#111311" stroke="#111311" stroke-width="0.89071" stroke-miterlimit="10" stroke-linecap="round" stroke-linejoin="round"/>
<path d="M184.441 191.767C184.441 191.767 151.354 197.546 149.28 198.362C147.206 199.177 147.774 229.739 149.432 241.007C151.09 252.276 153.433 293.308 153.433 293.308L149.332 322.421C149.332 322.421 180.622 326.171 193.381 325.754C206.141 325.338 220.351 323.037 220.351 323.037C220.351 323.037 228 297.693 228.573 280.573C229.146 263.452 238.822 221.731 239.233 218.941C239.645 216.151 242.908 205.951 242.908 205.951C242.908 205.951 219.941 196.114 213.892 194.738C207.844 193.361 193.452 191.604 184.441 191.767Z" fill="#21A038" stroke="#111311" stroke-width="0.89071" stroke-miterlimit="10" stroke-linecap="round" stroke-linejoin="round"/>
<path d="M176 199.017C176 199.017 178.951 210.676 187.814 218.493" stroke="#111311" stroke-width="0.89071" stroke-miterlimit="10" stroke-linecap="round" stroke-linejoin="round"/>
<path d="M210.07 200.671C210.07 200.671 207.838 204.832 204.504 209.26" stroke="#111311" stroke-width="0.89071" stroke-miterlimit="10" stroke-linecap="round" stroke-linejoin="round"/>
<path d="M203.647 211.549L201.701 213.726" stroke="#111311" stroke-width="0.89071" stroke-miterlimit="10" stroke-linecap="round" stroke-linejoin="round"/>
<path d="M179.881 321.12C187.548 321.508 201.645 321.816 211.058 319.605" stroke="#111311" stroke-width="0.89071" stroke-miterlimit="10" stroke-linecap="round" stroke-linejoin="round"/>
<path d="M174.438 320.796C174.438 320.796 175.307 320.87 176.806 320.963" stroke="#111311" stroke-width="0.89071" stroke-miterlimit="10" stroke-linecap="round" stroke-linejoin="round"/>
<path d="M206.72 315.584C196.566 315.965 181.272 315.677 169.777 311.659" stroke="#111311" stroke-width="0.89071" stroke-miterlimit="10" stroke-linecap="round" stroke-linejoin="round"/>
<path d="M217.537 315.162C217.537 315.162 214.955 315.413 210.83 315.584" stroke="#111311" stroke-width="0.89071" stroke-miterlimit="10" stroke-linecap="round" stroke-linejoin="round"/>
<path d="M218.182 301.197C211.774 304.09 199.61 308.841 187.918 309.315" stroke="#111311" stroke-width="0.89071" stroke-miterlimit="10" stroke-linecap="round" stroke-linejoin="round"/>
<path d="M222.806 299.019C222.806 299.019 221.93 299.479 220.382 300.204" stroke="#111311" stroke-width="0.89071" stroke-miterlimit="10" stroke-linecap="round" stroke-linejoin="round"/>
<path d="M180.067 180.564L179.419 196.779C179.419 196.779 182.727 208.882 193.874 209.167C204.806 209.446 208.184 195.317 208.184 195.317L208.099 178.129C208.099 178.129 197.557 185.459 192.307 184.244C187.058 183.028 180.067 180.564 180.067 180.564Z" fill="#9D9D9D" stroke="#111311" stroke-width="0.89071" stroke-miterlimit="10" stroke-linecap="round" stroke-linejoin="round"/>
<path d="M170.821 160.852C170.821 160.852 169.178 158.075 167.403 160.281C165.627 162.486 166.606 168.945 169.146 170.557C171.685 172.169 172.401 172.236 172.401 172.236C172.401 172.236 174.689 178.818 176.084 180.822C177.479 182.825 188.221 192.698 191.007 193.46C193.793 194.22 197.971 193.739 199.774 192.16C201.578 190.582 208.09 179.208 209.222 176.443C210.356 173.678 210.566 173.074 210.821 171.35C211.076 169.626 211.174 168.138 211.174 168.138C211.174 168.138 214.551 164.085 215.298 160.66C216.046 157.235 215.594 154.57 213.88 153.91C212.167 153.249 209.715 156.764 209.715 156.764L206.083 137.198C206.083 137.198 204.702 131.824 203.006 131.041C201.31 130.257 188.326 130.661 182.62 132.496C176.914 134.333 171.308 136.303 170.568 138.855C169.829 141.408 170.821 160.852 170.821 160.852Z" fill="#9D9D9D" stroke="#111311" stroke-width="0.89071" stroke-miterlimit="10" stroke-linecap="round" stroke-linejoin="round"/>
<path d="M183.453 135.324C183.453 135.324 172.922 136.476 172.109 138.151C171.297 139.824 170.071 143.016 170.817 145.614C171.562 148.213 171.148 161.204 171.148 161.204C171.148 161.204 172.224 165.39 171.193 164.71C170.164 164.03 169.944 159.147 169.658 158.537C169.372 157.927 165.903 148.266 164.928 144.673C163.953 141.081 167.408 138.098 168.265 137.401C169.121 136.703 170.035 135.622 170.035 135.622C170.035 135.622 169.929 129.971 172.713 127.704C175.498 125.437 193.902 123.273 195.473 122.837C197.045 122.4 199.014 119.279 200.428 118.634C201.842 117.989 205.459 120.272 207.166 125.295C208.871 130.317 208.487 131.643 207.601 132.531L206.717 133.421C206.717 133.421 209.261 134.048 209.836 137.798C210.412 141.548 211.387 145.14 210.962 148.018C210.536 150.895 209.436 156.402 209.351 156.977C209.266 157.553 208.698 156.947 208.425 154.976C208.151 153.005 205.207 138.531 204.691 136.926C204.175 135.322 203.473 133.7 203.187 133.09C202.9 132.48 187.579 131.627 183.453 135.324Z" fill="#111311" stroke="#111311" stroke-width="0.89071" stroke-miterlimit="10" stroke-linecap="round" stroke-linejoin="round"/>
<path d="M191.235 193.4C194.037 194.163 198.238 193.68 200.052 192.095C201.866 190.509 208.414 179.086 209.554 176.309C210.693 173.531 210.904 172.924 211.161 171.192C211.417 169.461 211.517 167.965 211.517 167.965L210.443 156.025C210.336 156.16 210.248 156.273 210.183 156.361C210.02 160.002 209.68 167.03 209.444 168.023C209.123 169.372 207.465 170.721 205.992 170.833C204.517 170.946 197.853 169.193 194.822 169.159C191.791 169.126 190.668 170.148 188.208 171.173C185.749 172.196 180.638 174.725 179.385 174.984C178.132 175.243 175.983 174.164 175.208 172.837C174.432 171.511 171.787 160.777 171.787 160.777C171.704 161.442 170.885 162.651 170.885 162.651L172.526 172.084C172.526 172.084 174.827 178.695 176.23 180.707C177.632 182.72 188.433 192.636 191.235 193.4Z" fill="#111311"/>
<path d="M191.235 193.4C194.037 194.163 198.238 193.68 200.052 192.095C201.866 190.509 208.414 179.086 209.554 176.309C210.693 173.531 210.904 172.924 211.161 171.192C211.417 169.461 211.517 167.965 211.517 167.965L210.443 156.025C210.336 156.16 210.248 156.273 210.183 156.361C210.02 160.002 209.68 167.03 209.444 168.023C209.123 169.372 207.465 170.721 205.992 170.833C204.517 170.946 197.853 169.193 194.822 169.159C191.791 169.126 190.668 170.148 188.208 171.173C185.749 172.196 180.638 174.725 179.385 174.984C178.132 175.243 175.983 174.164 175.208 172.837C174.432 171.511 171.787 160.777 171.787 160.777C171.704 161.442 170.885 162.651 170.885 162.651L172.526 172.084C172.526 172.084 174.827 178.695 176.23 180.707C177.632 182.72 188.433 192.636 191.235 193.4Z" stroke="#111311" stroke-width="0.89071" stroke-miterlimit="10" stroke-linecap="round" stroke-linejoin="round"/>
<path d="M194.716 151.909C194.716 151.909 192.419 154.011 192.687 154.778C192.956 155.547 196.036 169.429 195.709 170.875C195.383 172.32 193.305 172.844 191.768 172.189C190.23 171.536 189.727 167.045 189.727 167.045" fill="#9D9D9D"/>
<path d="M194.716 151.909C194.716 151.909 192.419 154.011 192.687 154.778C192.956 155.547 196.036 169.429 195.709 170.875C195.383 172.32 193.305 172.844 191.768 172.189C190.23 171.536 189.727 167.045 189.727 167.045" stroke="#111311" stroke-width="0.89071" stroke-miterlimit="10" stroke-linecap="round" stroke-linejoin="round"/>
<path d="M196.855 150.916C196.855 150.916 201.558 148.422 205.161 150.775" stroke="#111311" stroke-width="2.67213" stroke-miterlimit="10" stroke-linecap="round" stroke-linejoin="round"/>
<path d="M185.18 152.429C185.18 152.429 178.631 150.073 175.216 154.987" stroke="#111311" stroke-width="2.67213" stroke-miterlimit="10" stroke-linecap="round" stroke-linejoin="round"/>
<path d="M183.824 158.527C183.961 159.565 183.555 160.482 182.92 160.575C182.284 160.667 181.658 159.899 181.521 158.861C181.384 157.823 181.79 156.906 182.425 156.814C183.061 156.721 183.688 157.489 183.824 158.527Z" fill="#111311"/>
<path d="M181.499 158.862C181.341 157.826 181.738 156.911 182.386 156.817C183.035 156.723 183.688 157.486 183.847 158.522C184.005 159.557 183.608 160.473 182.959 160.567C182.311 160.661 181.658 159.897 181.499 158.862Z" stroke="#111311" stroke-width="0.89071" stroke-miterlimit="10" stroke-linecap="round" stroke-linejoin="round"/>
<path d="M200.287 156.049C200.424 157.087 200.019 158.004 199.383 158.096C198.747 158.188 198.121 157.42 197.985 156.383C197.848 155.345 198.253 154.428 198.889 154.336C199.525 154.243 200.152 155.011 200.287 156.049Z" fill="#111311"/>
<path d="M197.964 156.387C197.806 155.352 198.203 154.436 198.851 154.342C199.499 154.248 200.153 155.012 200.311 156.047C200.469 157.083 200.072 157.998 199.424 158.092C198.776 158.186 198.122 157.423 197.964 156.387Z" stroke="#111311" stroke-width="0.89071" stroke-miterlimit="10" stroke-linecap="round" stroke-linejoin="round"/>
<path d="M186.54 177.474C186.54 177.474 194.891 180.158 200.459 174.976" stroke="#111311" stroke-width="0.89071" stroke-miterlimit="10" stroke-linecap="round" stroke-linejoin="round"/>
<path d="M253.719 285.844C253.685 285.969 253.638 286.112 253.587 286.264C253.638 286.113 253.685 285.969 253.719 285.844Z" stroke="#111311" stroke-width="0.89071" stroke-miterlimit="10" stroke-linecap="round" stroke-linejoin="round"/>
<path d="M253.299 286.226C247.296 277.541 236.02 282.581 231.345 285.227L226.483 306.263L224.931 310.16C224.931 310.16 215.922 318.207 214.693 319.91C213.464 321.613 211.716 322.864 210.412 323.752C209.108 324.64 206.484 325.202 206.114 326.38C205.745 327.558 209.513 328.519 210.758 328.029C212.003 327.54 215.366 324.621 215.366 324.621L212.865 329.642L227.096 337.851C227.096 337.851 228.544 333.339 229.343 330.584C230.141 327.829 231.69 321.306 232.059 320.127C232.419 318.979 250.974 292.774 253.496 285.702C253.438 285.864 253.374 286.036 253.299 286.226Z" fill="#9D9D9D" stroke="#111311" stroke-width="0.89071" stroke-miterlimit="10" stroke-linecap="round" stroke-linejoin="round"/>
<path d="M148.347 197.84C148.347 197.84 143.978 201.249 142.663 204.948C141.348 208.647 122.594 254.728 118.685 261.601C114.776 268.474 113.553 274.194 114.863 277.136C116.175 280.077 143.3 305.02 143.3 305.02C143.3 305.02 145.108 316.46 145.656 319.33C146.203 322.199 147.224 327.124 147.224 327.124L159.899 322.491C159.899 322.491 161.811 325.289 163.163 326.625C164.516 327.96 166.337 328.737 166.893 327.583C167.449 326.427 165.653 322.836 165.653 322.836C165.653 322.836 164.857 320.346 164.956 318.343C165.056 316.34 162.716 312.496 161.832 310.601C160.949 308.706 152.556 301.269 152.556 301.269L137.557 268.824L148.514 240.315C148.514 240.315 146.01 205.87 148.347 197.84Z" fill="#9D9D9D" stroke="#111311" stroke-width="0.89071" stroke-miterlimit="10" stroke-linecap="round" stroke-linejoin="round"/>
<path d="M136.761 268.692L148.205 244.767C148.205 244.767 145.128 205.857 147.445 197.843C147.445 197.843 143.107 201.245 141.803 204.936C140.499 208.627 121.899 254.617 118.021 261.476C114.144 268.336 112.93 274.045 114.233 276.981C114.602 277.815 116.737 281.554 121.442 284.942C123.588 281.65 129.043 274.045 138.857 274.279L136.761 268.692Z" fill="#21A038" stroke="#111311" stroke-width="0.89071" stroke-miterlimit="10" stroke-linecap="round" stroke-linejoin="round"/>
<path d="M123.01 265.753C123.01 265.753 129.065 265.453 134.26 268.312" stroke="#111311" stroke-width="0.89071" stroke-miterlimit="10" stroke-linecap="round" stroke-linejoin="round"/>
<path d="M131.141 264.798C131.141 264.798 135.912 266.653 137.422 268.653" stroke="#111311" stroke-width="0.89071" stroke-miterlimit="10" stroke-linecap="round" stroke-linejoin="round"/>
<path d="M232.683 305.385C232.683 305.385 218.477 334.686 220.347 351.389C222.217 368.09 223.301 388.246 223.301 388.246L276.968 393.294C276.968 393.294 285.493 373.672 286.288 361.491C287.081 349.31 287.35 335.595 287.35 335.595L288.842 300.455L235.352 295.423L232.683 305.385Z" fill="#111311" stroke="#111311" stroke-width="0.853263" stroke-miterlimit="10" stroke-linecap="round" stroke-linejoin="round"/>
<path d="M254.892 337.746C254.892 337.746 261.225 357.902 263.207 373.399C265.189 388.896 264.684 391.613 264.684 391.613" stroke="#111311" stroke-width="0.853263" stroke-miterlimit="10" stroke-linecap="round" stroke-linejoin="round"/>
<path d="M262.578 355.012C262.578 355.012 273.029 347.625 277.106 338.018" stroke="#111311" stroke-width="0.853263" stroke-miterlimit="10" stroke-linecap="round" stroke-linejoin="round"/>
<path d="M273.854 217.743L247.802 223.981C247.802 223.981 254.949 239.651 255.322 261.161C255.694 282.671 251.798 304.147 251.798 304.147C251.798 304.147 257.814 308.789 270.314 308.49C282.815 308.191 287.392 301.404 287.392 301.404C287.392 301.404 290.891 265.821 288.054 251.297C285.216 236.774 273.854 217.743 273.854 217.743Z" fill="#21A038" stroke="#111311" stroke-width="0.853263" stroke-miterlimit="10" stroke-linecap="round" stroke-linejoin="round"/>
<path d="M242.486 151.3C242.486 151.3 236.458 150.231 233.006 157.123C229.555 164.015 219.251 188.22 220.013 193.83C220.776 199.44 223.754 201.566 224.295 207.657C224.834 213.75 221.496 217.129 221.496 217.129C221.496 217.129 223.328 220.657 228.756 221.334C234.186 222.012 242.916 218.3 248.53 217.485C254.145 216.67 266.31 216.638 273.988 216.183C281.665 215.729 283.989 210.074 283.989 210.074C283.989 210.074 278.798 210.09 278.89 206.743C278.982 203.395 284.695 191.345 284.003 182.553C283.313 173.762 272.364 164.007 267.61 159.197C262.857 154.388 258.321 150.438 252.732 149.745C247.143 149.052 243.716 149.234 242.486 151.3Z" fill="#111311" stroke="#111311" stroke-width="0.853263" stroke-miterlimit="10" stroke-linecap="round" stroke-linejoin="round"/>
<path d="M235.614 181.905C235.614 181.905 229.885 189.998 229.593 197.617C229.302 205.235 234.717 206.255 235.931 205.374" stroke="#111311" stroke-width="0.853263" stroke-miterlimit="10" stroke-linecap="round" stroke-linejoin="round"/>
<path d="M268.2 172.904C268.2 172.904 278.677 185.232 279.397 196.965" stroke="#111311" stroke-width="0.853263" stroke-miterlimit="10" stroke-linecap="round" stroke-linejoin="round"/>
<path d="M247.76 202.25L251.248 218.043C251.248 218.043 260.852 232.712 265.98 231.251C271.108 229.789 268.079 215.729 268.148 213.793C268.218 211.857 267.871 202.287 267.871 202.287C267.871 202.287 263.805 207.557 261.614 207.351C259.422 207.145 247.76 202.25 247.76 202.25Z" fill="#9D9D9D" stroke="#111311" stroke-width="0.853263" stroke-miterlimit="10" stroke-linecap="round" stroke-linejoin="round"/>
<path d="M247.877 161.975C247.877 161.975 237.016 177.792 236.734 180.069C236.451 182.347 241.477 196.999 242.989 199.977C244.502 202.955 256.595 210.296 259.448 210.741C262.302 211.187 265.59 208.129 266.593 205.563C267.595 203 271.355 196.08 271.663 192.06C271.778 190.559 268.65 173.269 267.237 172.25C265.824 171.23 247.877 161.975 247.877 161.975Z" fill="#9D9D9D" stroke="#111311" stroke-width="0.853263" stroke-miterlimit="10" stroke-linecap="round" stroke-linejoin="round"/>
<path d="M250.656 185.761C250.656 185.761 247.489 183.958 245.265 186.757" stroke="#111311" stroke-width="0.853263" stroke-miterlimit="10" stroke-linecap="round" stroke-linejoin="round"/>
<path d="M259.774 183.493C259.774 183.493 260.784 179.975 264.799 181.545" stroke="#111311" stroke-width="0.853263" stroke-miterlimit="10" stroke-linecap="round" stroke-linejoin="round"/>
<path d="M249.113 180.892C249.113 180.892 243.889 179.864 241.956 183.409" stroke="#111311" stroke-width="0.853263" stroke-miterlimit="10" stroke-linecap="round" stroke-linejoin="round"/>
<path d="M256.534 178.312C256.534 178.312 259.749 174.681 263.609 176.592" stroke="#111311" stroke-width="0.853263" stroke-miterlimit="10" stroke-linecap="round" stroke-linejoin="round"/>
<path d="M259.955 191.107C259.955 191.107 258.012 193.47 255.564 192.444" stroke="#111311" stroke-width="0.853263" stroke-miterlimit="10" stroke-linecap="round" stroke-linejoin="round"/>
<path d="M264.684 193.037C264.684 193.037 260.811 197.724 251.754 197.577C251.754 197.577 257.149 202.549 260.769 201.714C264.391 200.88 264.684 193.037 264.684 193.037Z" fill="#9D9D9D" stroke="#111311" stroke-width="0.853263" stroke-miterlimit="10" stroke-linecap="round" stroke-linejoin="round"/>
<path d="M238.648 188.861C238.648 188.861 235.92 187.204 235.014 190.856C234.109 194.508 241.425 196.48 241.425 196.48L238.648 188.861Z" fill="#9D9D9D" stroke="#111311" stroke-width="0.853263" stroke-miterlimit="10" stroke-linecap="round" stroke-linejoin="round"/>
<path d="M269.399 178.97C269.399 178.97 269.579 177.494 270.985 178.033C272.393 178.571 274.378 183.198 273.864 185.767C273.348 188.335 271.628 188.195 271.628 188.195L269.399 178.97Z" fill="#9D9D9D" stroke="#111311" stroke-width="0.853263" stroke-miterlimit="10" stroke-linecap="round" stroke-linejoin="round"/>
<path d="M243.304 216.371C243.304 216.371 222.364 228.023 221.245 230.367C220.125 232.713 225.418 305.916 225.418 305.916C225.418 305.916 201.437 348.106 205.13 356.168C208.823 364.231 228.889 373.515 229.71 374.995C230.532 376.475 243.55 339.363 248.924 325.341C254.299 311.318 263.392 285.916 265.215 273.654C267.039 261.392 264.232 244.656 263.234 239.131C262.237 233.604 260.404 223.968 260.404 223.968L243.304 216.371Z" fill="#111311" stroke="#111311" stroke-width="0.853263" stroke-miterlimit="10" stroke-linecap="round" stroke-linejoin="round"/>
<path d="M248.13 208.789C248.13 208.789 260.829 223.959 260.058 224.575C259.289 225.19 249.789 236.377 249.789 236.377L239.372 216.998L248.13 208.789Z" fill="#111311" stroke="#111311" stroke-width="0.853263" stroke-miterlimit="10" stroke-linecap="round" stroke-linejoin="round"/>
<path d="M271.423 224.965C271.423 224.965 281.433 241.338 285.052 252.718C288.67 264.098 288.626 283.708 287.703 291.323L285.962 305.69C285.962 305.69 286.663 342.531 287.575 348.747C288.487 354.963 289.758 366.468 289.758 366.468C289.758 366.468 291.819 365.966 292.577 358.335C293.334 350.703 294.454 319.466 293.639 306.954C292.823 294.443 294.334 273.974 293.293 270.196L292.251 266.418L310.494 262.744C310.494 262.744 300.789 251.244 299.16 234.908C298.419 227.475 295.288 223.235 293.335 221.471C291.384 219.707 275.951 216.47 273.295 216.39C270.64 216.309 271.423 224.965 271.423 224.965Z" fill="#111311" stroke="#111311" stroke-width="0.853263" stroke-miterlimit="10" stroke-linecap="round" stroke-linejoin="round"/>
<path d="M269.563 225.087C269.563 225.087 270.35 222.864 271.319 223.309C272.288 223.753 280.261 229.626 281.17 229.18C282.079 228.736 273.96 215.784 272.322 213.863C270.684 211.942 268.958 210.72 268.958 210.72L268.546 214.039L269.563 225.087Z" fill="#111311" stroke="#111311" stroke-width="0.853263" stroke-miterlimit="10" stroke-linecap="round" stroke-linejoin="round"/>
<path d="M286.247 226.902C286.247 226.902 290.116 247.034 289.987 255.536Z" fill="#9D9D9D"/>
<path d="M286.247 226.902C286.247 226.902 290.116 247.034 289.987 255.536" stroke="#111311" stroke-width="0.853263" stroke-miterlimit="10" stroke-linecap="round" stroke-linejoin="round"/>
<path d="M285.477 266.566C285.477 266.566 290.701 252.613 291.635 251.834C292.569 251.054 299.704 248.691 300.273 248.6C300.843 248.51 304.85 252.207 305.451 252.987C306.052 253.765 308.84 256.048 308.146 257.138C307.452 258.23 305.764 257.204 304.798 257.113C303.833 257.023 298.907 259.594 298.578 259.996C298.248 260.399 296.286 263.826 295.61 264.773C294.934 265.721 285.477 266.566 285.477 266.566Z" fill="#9D9D9D" stroke="#111311" stroke-width="0.853263" stroke-miterlimit="10" stroke-linecap="round" stroke-linejoin="round"/>
<path d="M306.617 254.343C306.617 254.343 304.881 253.41 304.298 253.643C303.715 253.876 296.836 256.398 296.412 256.839C295.987 257.28 295.437 257.996 295.437 257.996" stroke="#111311" stroke-width="0.853263" stroke-miterlimit="10" stroke-linecap="round" stroke-linejoin="round"/>
<path d="M293.913 255.673C293.913 255.673 295.198 254.255 296.376 253.693C297.557 253.13 301.585 251.972 302.066 251.826C302.547 251.679 304.261 252.034 304.261 252.034" stroke="#111311" stroke-width="0.853263" stroke-miterlimit="10" stroke-linecap="round" stroke-linejoin="round"/>
<path d="M301.582 250.082C301.582 250.082 293.929 252.146 293.389 252.768L292.851 253.391" stroke="#111311" stroke-width="0.853263" stroke-miterlimit="10" stroke-linecap="round" stroke-linejoin="round"/>
<path d="M293.181 264.817C293.181 264.817 300.717 260.407 303.923 259.295C307.129 258.185 313.037 261.388 314.021 263.069C315.006 264.75 315.59 272.396 314.729 277.963C313.867 283.531 313.395 285.958 309.537 286.831C305.679 287.705 300.539 287.927 300.011 288.053C299.485 288.18 300.3 277.49 297.814 271.431C295.329 265.372 293.181 264.817 293.181 264.817Z" fill="#111311" stroke="#111311" stroke-width="0.853263" stroke-miterlimit="10" stroke-linecap="round" stroke-linejoin="round"/>
<path d="M283.875 267.267C283.875 267.267 283.093 287.285 284.135 289.85C285.177 292.415 288.603 292.21 292.239 291.671C295.875 291.132 301.234 290.404 301.554 289.199C301.873 287.996 303.151 276.308 301.908 271.257C300.664 266.205 297.903 262.42 295.297 262.88C292.689 263.339 284.242 264.306 283.875 267.267Z" fill="#111311" stroke="#111311" stroke-width="0.853263" stroke-miterlimit="10" stroke-linecap="round" stroke-linejoin="round"/>
<path d="M264.122 297.82L287.035 282.103L278.794 275.18L261.184 280.696C261.184 280.696 264.456 293.164 264.122 297.82Z" fill="#9D9D9D" stroke="#111311" stroke-width="0.853263" stroke-miterlimit="10" stroke-linecap="round" stroke-linejoin="round"/>
<path d="M252.483 306.842C252.483 306.842 254.662 307.048 257.969 304.784C261.278 302.52 264.21 301.079 264.283 293.786C264.357 286.49 262.316 275.131 260.858 273.561C259.4 271.991 248.71 272.699 248.35 273.38C247.991 274.063 254.977 287.751 254.732 295.315C254.486 302.88 252.483 306.842 252.483 306.842Z" fill="#111311" stroke="#111311" stroke-width="0.853263" stroke-miterlimit="10" stroke-linecap="round" stroke-linejoin="round"/>
<path d="M224.539 231.046C224.539 231.046 223.381 227.846 220.552 230.269C217.721 232.694 215.434 240.067 216.086 249.294C216.738 258.52 216.957 296.92 218.288 301.771C219.618 306.622 220.846 311.178 224.233 311.641C227.622 312.105 238.982 311.604 246.994 309.209C255.005 306.817 255.749 297.436 254.159 289.123C252.567 280.81 248.621 273.706 246.006 271.454C243.391 269.202 242.206 266.513 239.927 260.426C237.647 254.339 232.654 238.974 231.01 236.67" fill="#111311"/>
<path d="M224.539 231.046C224.539 231.046 223.381 227.846 220.552 230.269C217.721 232.694 215.434 240.067 216.086 249.294C216.738 258.52 216.957 296.92 218.288 301.771C219.618 306.622 220.846 311.178 224.233 311.641C227.622 312.105 238.982 311.604 246.994 309.209C255.005 306.817 255.749 297.436 254.159 289.123C252.567 280.81 248.621 273.706 246.006 271.454C243.391 269.202 242.206 266.513 239.927 260.426C237.647 254.339 232.654 238.974 231.01 236.67" stroke="#111311" stroke-width="0.853263" stroke-miterlimit="10" stroke-linecap="round" stroke-linejoin="round"/>
<path d="M231.474 285.01C230.699 285.58 229.907 286.084 229.104 286.49" stroke="#111311" stroke-width="0.853263" stroke-miterlimit="10" stroke-linecap="round" stroke-linejoin="round"/>
<path d="M241.432 273.842C241.432 273.842 237.956 279.305 233.487 283.37" stroke="#111311" stroke-width="0.853263" stroke-miterlimit="10" stroke-linecap="round" stroke-linejoin="round"/>
<path d="M286.986 269.221C286.986 269.221 266.264 269.305 260.99 268.655C255.716 268.006 248.552 264.382 248.552 264.382C248.552 264.382 239.98 259.596 238.154 258.392C236.329 257.188 231.734 256.751 230.409 257.213C229.084 257.675 226.014 259.736 226.254 261.229C226.494 262.722 228.289 261.864 229.214 261.217C230.139 260.57 231.602 260.12 231.602 260.12L235.935 261.562L236.627 262.806C236.627 262.806 230.358 263.385 229.469 263.741C228.579 264.098 225.536 269.396 224.976 270.52C224.415 271.643 224.851 271.537 225.686 271.616L226.522 271.696C226.522 271.696 225.819 273.982 226.619 274.352C227.419 274.722 228.605 274.247 228.605 274.247C228.605 274.247 229.455 275.358 229.873 275.398C230.291 275.438 234.91 273.377 235.66 273.007C236.409 272.638 242.238 274.516 243.769 274.662C245.303 274.808 251.169 275.22 251.169 275.22C251.169 275.22 278.267 286.331 281.957 287.271C285.646 288.21 288.171 288.304 290.097 284.076C292.023 279.847 290.118 270.107 286.986 269.221Z" fill="#9D9D9D" stroke="#111311" stroke-width="0.853263" stroke-miterlimit="10" stroke-linecap="round" stroke-linejoin="round"/>
<path d="M228.486 273.81C228.486 273.81 232.751 269.87 233.789 269.388C234.828 268.907 236.851 268.374 236.851 268.374" stroke="#111311" stroke-width="0.853263" stroke-miterlimit="10" stroke-linecap="round" stroke-linejoin="round"/>
<path d="M226.344 271.315L230.801 266.958L235.16 265.632" stroke="#111311" stroke-width="0.853263" stroke-miterlimit="10" stroke-linecap="round" stroke-linejoin="round"/>
<path d="M125.556 153.639C125.556 153.639 126.714 154.333 128.568 155.029C130.421 155.723 135.054 157.345 137.139 159.662C139.223 161.978 138.529 167.538 138.529 167.538" stroke="#111311" stroke-width="0.853263" stroke-miterlimit="10" stroke-linecap="round" stroke-linejoin="round"/>
<path d="M99.1087 172.909L97.2936 176.802" stroke="#111311" stroke-width="0.853263" stroke-miterlimit="10" stroke-linecap="round" stroke-linejoin="round"/>
<path d="M84.4789 160.681C84.4789 160.681 83.2152 166.649 81.9387 168.017C80.6622 169.384 78.634 171.001 79.3073 173.984C79.9813 176.968 83.914 178.833 83.9021 179.33C83.8901 179.828 76.7705 181.195 76.9642 183.433C77.1587 185.672 79.082 188.406 79.082 188.406C79.082 188.406 73.8174 190.147 73.372 193.131C72.9265 196.115 74.7193 199.098 74.6928 200.218C74.6655 201.337 71.4965 203.823 72.4436 205.813C73.389 207.802 75.6331 207.553 75.7491 207.926C75.8635 208.299 74.4573 209.915 74.4334 210.91C74.4087 211.904 75.1339 212.775 75.1339 212.775H117.156L105.238 150.611L89.4244 156.702L84.4789 160.681Z" fill="#21A038" stroke="#111311" stroke-width="0.853263" stroke-miterlimit="10" stroke-linecap="round" stroke-linejoin="round"/>
<path d="M141.408 301.755C141.408 301.755 150.075 321.48 151.213 326.322C152.35 331.164 152.89 352.717 151.086 361.111C147.8 376.397 138.383 390.879 138.383 390.879H90.6481L80.8048 344.917L95.1806 300.14L141.408 301.755Z" fill="#9D9D9D" stroke="#111311" stroke-width="0.853263" stroke-miterlimit="10" stroke-linecap="round" stroke-linejoin="round"/>
<path d="M133.491 339.771L129.473 350.172L131.387 390.656" stroke="#111311" stroke-width="0.853263" stroke-miterlimit="10" stroke-linecap="round" stroke-linejoin="round"/>
<path d="M140.649 288.664C140.649 288.664 149.083 295.836 150.093 298.527C151.104 301.216 151.749 318.97 152.214 322.018C152.678 325.067 150.635 327.935 150.635 327.935L143.364 309.824C143.364 309.824 142.663 301.755 142.497 301.216C142.33 300.678 141 296.374 141 296.374L140.649 288.664Z" fill="#9D9D9D" stroke="#111311" stroke-width="0.853263" stroke-miterlimit="10" stroke-linecap="round" stroke-linejoin="round"/>
<path d="M147.601 305.162C147.601 305.162 147.702 308.389 148.004 310.721C148.306 313.052 149.277 317.356 147.279 318.432" fill="#9D9D9D"/>
<path d="M147.601 305.162C147.601 305.162 147.702 308.389 148.004 310.721C148.306 313.052 149.277 317.356 147.279 318.432" stroke="#111311" stroke-width="0.853263" stroke-miterlimit="10" stroke-linecap="round" stroke-linejoin="round"/>
<path d="M110.044 212.27L121.512 212.628L129.711 212.899L139.245 220.878C139.245 220.878 147.246 260.688 147.902 263.199C148.558 265.709 141.108 284.539 140.526 286.331C139.945 288.125 141.407 301.754 141.407 301.754C141.407 301.754 137.738 305.161 125.864 306.775C113.989 308.388 100.303 303.368 100.303 303.368C100.303 303.368 109.306 279.696 111.228 266.964C111.228 266.964 112.9 242.397 112.353 235.404C111.805 228.409 110.044 212.27 110.044 212.27Z" fill="#21A038" stroke="#111311" stroke-width="0.853263" stroke-miterlimit="10" stroke-linecap="round" stroke-linejoin="round"/>
<path d="M138.652 271.195L120.087 280.611" stroke="#111311" stroke-width="0.853263" stroke-miterlimit="10" stroke-linecap="round" stroke-linejoin="round"/>
<path d="M137.575 274.424L128.966 278.728" stroke="#111311" stroke-width="0.853263" stroke-miterlimit="10" stroke-linecap="round" stroke-linejoin="round"/>
<path d="M106.904 199.088C106.904 199.088 113.801 222.97 114.693 227.197C115.586 231.425 124.417 236.397 129.829 233.662C135.241 230.927 133.503 225.705 132.588 222.473C131.671 219.24 129.711 212.899 129.711 212.899L131.798 193.504C131.798 193.504 125.246 202.207 122.86 203.201C120.473 204.196 106.904 199.088 106.904 199.088Z" fill="#9D9D9D" stroke="#111311" stroke-width="0.853263" stroke-miterlimit="10" stroke-linecap="round" stroke-linejoin="round"/>
<path d="M119.808 205.371L128.847 214.093L131.067 195.381L119.808 205.371Z" fill="#111311" stroke="#111311" stroke-width="0.853263" stroke-miterlimit="10" stroke-linecap="round" stroke-linejoin="round"/>
<path d="M129.164 213.142L128.689 221.704" stroke="#111311" stroke-width="0.853263" stroke-miterlimit="10" stroke-linecap="round" stroke-linejoin="round"/>
<path d="M129.773 210.926C129.773 210.926 142.546 247.418 143.96 255.667C145.374 263.916 145.689 265.71 145.799 268.579C145.909 271.447 143.604 277.725 143.604 277.725C143.604 277.725 152.661 266.606 152.717 256.923C152.772 247.238 146.194 217.989 143.124 216.216C130.92 209.168 129.773 210.926 129.773 210.926Z" fill="#111311" stroke="#111311" stroke-width="0.853263" stroke-miterlimit="10" stroke-linecap="round" stroke-linejoin="round"/>
<path d="M141.63 228.918C141.63 228.918 147.084 245.332 146.43 257.575" stroke="#111311" stroke-width="0.853263" stroke-miterlimit="10" stroke-linecap="round" stroke-linejoin="round"/>
<path d="M98.2899 170.504L104.084 162.298L130.9 189.526C130.9 189.526 129.27 205.44 129.258 205.937C129.246 206.435 130.92 209.17 130.92 209.17C130.92 209.17 131.652 209.792 132.252 210.662C132.852 211.532 132.231 211.532 132.077 212.776C131.922 214.019 132.777 214.641 133.384 215.263C133.99 215.884 135.467 216.506 136.325 217.003C137.183 217.5 136.41 218.619 135.762 219.738C135.113 220.857 134.191 222.971 135.256 225.208C136.321 227.447 136.951 227.073 138.774 228.813C140.596 230.554 137.947 232.171 137.947 232.171C137.947 232.171 139.323 231.797 140.451 231.425C141.579 231.052 142.107 229.808 141.631 228.938C141.154 228.068 140.229 225.208 140.614 224.711C140.999 224.214 144.522 222.474 145.55 221.105C146.578 219.738 145.465 219.49 146.347 218.992C147.23 218.495 148.998 217.375 149.413 215.635C149.828 213.895 147.766 211.781 148.402 211.159C149.039 210.537 151.43 206.71 151.458 205.591C151.484 204.472 150.068 202.579 150.068 202.579C150.068 202.579 150.991 201.835 151.576 198.229C152.161 194.624 149.328 193.505 149.128 191.516C148.928 189.526 151.854 186.791 151.898 179.828C151.942 172.867 140.431 170.753 140.079 169.882C139.728 169.012 140.134 167.644 139.93 165.779C139.727 163.914 135.206 160.682 135.206 160.682C135.206 160.682 135.747 158.817 136.151 157.574C136.554 156.33 135.96 155.212 133.77 153.222C131.58 151.233 120.99 141.909 116.539 140.914C112.086 139.919 104.634 144.768 103.751 145.265C102.869 145.763 95.824 144.022 93.6687 145.763C91.5125 147.503 90.8188 150.487 90.2906 151.731C89.7633 152.974 87.8989 152.974 86.7495 154.217C85.6002 155.46 83.7222 166.277 83.7222 166.277" fill="#21A038"/>
<path d="M98.2899 170.504L104.084 162.298L130.9 189.526C130.9 189.526 129.27 205.44 129.258 205.937C129.246 206.435 130.92 209.17 130.92 209.17C130.92 209.17 131.652 209.792 132.252 210.662C132.852 211.532 132.231 211.532 132.077 212.776C131.922 214.019 132.777 214.641 133.384 215.263C133.99 215.884 135.467 216.506 136.325 217.003C137.183 217.5 136.41 218.619 135.762 219.738C135.113 220.857 134.191 222.971 135.256 225.208C136.321 227.447 136.951 227.073 138.774 228.813C140.596 230.554 137.947 232.171 137.947 232.171C137.947 232.171 139.323 231.797 140.451 231.425C141.579 231.052 142.107 229.808 141.631 228.938C141.154 228.068 140.229 225.208 140.614 224.711C140.999 224.214 144.522 222.474 145.55 221.105C146.578 219.738 145.465 219.49 146.347 218.992C147.23 218.495 148.998 217.375 149.413 215.635C149.828 213.895 147.766 211.781 148.402 211.159C149.039 210.537 151.43 206.71 151.458 205.591C151.484 204.472 150.068 202.579 150.068 202.579C150.068 202.579 150.991 201.835 151.576 198.229C152.161 194.624 149.328 193.505 149.128 191.516C148.928 189.526 151.854 186.791 151.898 179.828C151.942 172.867 140.431 170.753 140.079 169.882C139.728 169.012 140.134 167.644 139.93 165.779C139.727 163.914 135.206 160.682 135.206 160.682C135.206 160.682 135.747 158.817 136.151 157.574C136.554 156.33 135.96 155.212 133.77 153.222C131.58 151.233 120.99 141.909 116.539 140.914C112.086 139.919 104.634 144.768 103.751 145.265C102.869 145.763 95.824 144.022 93.6687 145.763C91.5125 147.503 90.8188 150.487 90.2906 151.731C89.7633 152.974 87.8989 152.974 86.7495 154.217C85.6002 155.46 83.7222 166.277 83.7222 166.277" stroke="#111311" stroke-width="0.853263" stroke-miterlimit="10" stroke-linecap="round" stroke-linejoin="round"/>
<path d="M109.324 208.236C109.324 208.236 122.305 253.873 122.878 259.792C123.453 265.709 103.146 304.444 99.0041 312.513C94.8632 320.583 85.8391 345.15 84.3791 353.579C82.9192 362.007 81.7793 372.049 81.7793 372.049C81.7793 372.049 70.9667 366.849 63.9025 362.366C56.8384 357.883 55.6438 355.372 56.2035 354.476C56.7633 353.579 59.7233 342.461 59.7233 342.461C59.7233 342.461 53.6122 335.646 53.9876 334.928C54.3639 334.211 68.2533 286.511 68.2533 286.511C68.2533 286.511 71.9087 209.76 73.3439 209.76C74.7782 209.76 109.324 208.236 109.324 208.236Z" fill="#111311" stroke="#111311" stroke-width="0.853263" stroke-miterlimit="10" stroke-linecap="round" stroke-linejoin="round"/>
<path d="M108.014 230.028L122.879 259.792" stroke="#111311" stroke-width="0.853263" stroke-miterlimit="10" stroke-linecap="round" stroke-linejoin="round"/>
<path d="M81.9387 210.297C81.9387 210.297 71.2311 208.145 69.3684 211.014C67.5049 213.884 51.0838 262.481 50.0787 266.964C49.0727 271.447 79.8294 304.622 79.8294 304.622L95.6873 294.042L76.9599 267.681L87.1982 230.023" fill="#111311"/>
<path d="M81.9387 210.297C81.9387 210.297 71.2311 208.145 69.3684 211.014C67.5049 213.884 51.0838 262.481 50.0787 266.964C49.0727 271.447 79.8294 304.622 79.8294 304.622L95.6873 294.042L76.9599 267.681L87.1982 230.023" stroke="#111311" stroke-width="0.853263" stroke-miterlimit="10" stroke-linecap="round" stroke-linejoin="round"/>
<path d="M84.5093 241.727L76.8649 265.356L93.9677 290.994" stroke="#111311" stroke-width="0.853263" stroke-miterlimit="10" stroke-linecap="round" stroke-linejoin="round"/>
<path d="M86.594 234.315L85.4985 237.809" stroke="#111311" stroke-width="0.853263" stroke-miterlimit="10" stroke-linecap="round" stroke-linejoin="round"/>
<path d="M93.8861 290.992L76.763 305.25L82.5884 312.326L100.604 298.437L93.8861 290.992Z" fill="#9D9D9D" stroke="#111311" stroke-width="0.853263" stroke-miterlimit="10" stroke-linecap="round" stroke-linejoin="round"/>
<path d="M99.3317 299.064C99.3317 299.064 113.654 314.844 115.25 315.562C116.847 316.28 119.992 319.687 120.849 321.3C121.707 322.914 122.91 325.066 124.143 325.962C125.377 326.859 125.53 327.935 123.365 328.474C121.2 329.011 119.223 329.191 118.028 326.68C116.835 324.17 114.918 321.838 114.918 321.838L102.682 330.984C102.682 330.984 100.048 321.3 99.737 319.327C99.4256 317.355 98.7865 314.127 98.7865 314.127L90.5499 306.237L99.3317 299.064Z" fill="#9D9D9D" stroke="#111311" stroke-width="0.853263" stroke-miterlimit="10" stroke-linecap="round" stroke-linejoin="round"/>
<path d="M79.2647 197.233C79.2647 197.233 78.0778 205.188 78.757 207.926C79.4763 210.822 85.305 210.303 84.1095 214.149C83.7239 215.389 82.2179 216.712 82.6889 218.119C83.1718 219.56 85.0686 219.642 86.1224 220.46C88.0584 221.964 87.3656 223.578 88.0235 225.707C88.4996 227.245 90.1378 227.777 90.5807 228.997C91.1063 230.442 90.0986 231.345 91.7027 232.916C94.4955 235.652 96.5971 236.148 96.9759 235.9C97.3547 235.652 96.6244 235.03 98.3855 234.159C100.147 233.289 103.543 231.673 102.956 230.305C102.376 228.959 101.797 227.613 101.783 227.58C102.603 229.468 105.149 227.561 105.845 226.567C107.433 224.299 105.004 221.856 105.288 219.405C105.602 216.688 108.662 215.288 109.004 212.55C109.339 209.869 106.555 208.023 107.161 205.564C107.437 204.445 107.591 203.201 107.591 203.201C107.591 203.201 106.782 200.715 105.559 199.844C104.337 198.974 103.924 195.493 103.83 194.25" fill="#21A038"/>
<path d="M79.2647 197.233C79.2647 197.233 78.0778 205.188 78.757 207.926C79.4763 210.822 85.305 210.303 84.1095 214.149C83.7239 215.389 82.2179 216.712 82.6889 218.119C83.1718 219.56 85.0686 219.642 86.1224 220.46C88.0584 221.964 87.3656 223.578 88.0235 225.707C88.4996 227.245 90.1378 227.777 90.5807 228.997C91.1063 230.442 90.0986 231.345 91.7027 232.916C94.4955 235.652 96.5971 236.148 96.9759 235.9C97.3547 235.652 96.6244 235.03 98.3855 234.159C100.147 233.289 103.543 231.673 102.956 230.305C102.376 228.959 101.797 227.613 101.783 227.58C102.603 229.468 105.149 227.561 105.845 226.567C107.433 224.299 105.004 221.856 105.288 219.405C105.602 216.688 108.662 215.288 109.004 212.55C109.339 209.869 106.555 208.023 107.161 205.564C107.437 204.445 107.591 203.201 107.591 203.201C107.591 203.201 106.782 200.715 105.559 199.844C104.337 198.974 103.924 195.493 103.83 194.25" stroke="#111311" stroke-width="0.853263" stroke-miterlimit="10" stroke-linecap="round" stroke-linejoin="round"/>
<path d="M101.63 157.813C101.63 157.813 91.579 172.427 92.3478 175.519C93.1157 178.611 100.786 198.425 103.408 200.393C106.03 202.36 116.598 206.998 120.108 207.139C123.617 207.279 126.181 205.874 127.645 203.484C129.108 201.096 134.683 191.399 134.734 189.291C134.785 187.183 130.286 166.953 129.45 166.672C128.614 166.39 101.63 157.813 101.63 157.813Z" fill="#9D9D9D" stroke="black" stroke-width="0.853263" stroke-miterlimit="10" stroke-linecap="round" stroke-linejoin="round"/>
<path d="M116.99 173.34C116.99 173.34 116.701 177.241 117.06 178.508C117.419 179.776 120.721 184.359 120.799 185.139C120.878 185.919 119.592 186.699 117.819 187.382" stroke="#111311" stroke-width="0.853263" stroke-miterlimit="10" stroke-linecap="round" stroke-linejoin="round"/>
<path d="M94.304 181.559C94.304 181.559 92.1048 179.588 90.926 181.978C89.7472 184.368 90.6545 187.602 94.3813 190.276C98.1089 192.95 98.9509 192.951 98.9509 192.951L94.304 181.559Z" fill="#9D9D9D" stroke="#111311" stroke-width="0.853263" stroke-miterlimit="10" stroke-linecap="round" stroke-linejoin="round"/>
<path d="M131.085 171.724C131.085 171.724 133.076 170.74 133.999 173.27C134.921 175.799 133.5 182.265 133.5 182.265L131.085 171.724Z" fill="#9D9D9D" stroke="#111311" stroke-width="0.853263" stroke-miterlimit="10" stroke-linecap="round" stroke-linejoin="round"/>
<path d="M112.026 192.3C112.026 192.3 118.499 191.958 120.068 191.196C121.637 190.431 124.327 187.228 124.327 187.228C124.327 187.228 124.5 194.42 121.107 195.567C118.723 196.373 112.026 192.3 112.026 192.3Z" fill="#9D9D9D" stroke="#111311" stroke-width="0.853263" stroke-miterlimit="10" stroke-linecap="round" stroke-linejoin="round"/>
<path d="M101.42 177.142C101.42 177.142 101.83 173.363 108.325 172.791Z" fill="#9D9D9D"/>
<path d="M101.42 177.142C101.42 177.142 101.83 173.363 108.325 172.791" stroke="#111311" stroke-width="0.853263" stroke-miterlimit="10" stroke-linecap="round" stroke-linejoin="round"/>
<path d="M116.895 170.2C116.895 170.2 120.885 166.622 125.128 170.901Z" fill="#9D9D9D"/>
<path d="M116.895 170.2C116.895 170.2 120.885 166.622 125.128 170.901" stroke="#111311" stroke-width="0.853263" stroke-miterlimit="10" stroke-linecap="round" stroke-linejoin="round"/>
<path d="M109.362 179.057C109.722 180.217 109.391 181.347 108.62 181.584C107.851 181.819 106.934 181.07 106.573 179.911C106.213 178.75 106.543 177.619 107.314 177.383C108.083 177.148 109 177.896 109.362 179.057Z" fill="#111311"/>
<path d="M122.628 175.381C122.988 176.541 122.656 177.672 121.887 177.908C121.117 178.144 120.2 177.394 119.84 176.234C119.478 175.074 119.81 173.943 120.58 173.707C121.349 173.472 122.267 174.22 122.628 175.381Z" fill="#111311"/>
</g>
<defs>
<clipPath id="clip0_3040_437">
<rect width="426.632" height="386" fill="white"/>
</clipPath>
</defs>
</svg>
